Panamera-Light.ufo
<glyph name="exclam" format="1">
  <advance width="310"/>
  <unicode hex="0021"/>
  <outline>
    <contour>
      <point x="186.683" y="731" type="line"/>
      <point x="123.317" y="731" type="line"/>
      <point x="123.317" y="608" type="line"/>
      <point x="142.129" y="214" type="line"/>
      <point x="167.871" y="214" type="line"/>
      <point x="186.683" y="608" type="line"/>
    </contour>
    <component base="period" xOffset="20"/>
  </outline>
</glyph>
<glyph name="numbersign" format="1">
  <advance width="823"/>
  <unicode hex="0023"/>
  <outline>
    <contour>
      <point x="444" y="-6" type="line"/>
      <point x="485" y="-6" type="line"/>
      <point x="740" y="756" type="line"/>
      <point x="699" y="756" type="line"/>
    </contour>
    <contour>
      <point x="31" y="190" type="line"/>
      <point x="730" y="190" type="line"/>
      <point x="730" y="227" type="line"/>
      <point x="31" y="227" type="line"/>
    </contour>
    <contour>
      <point x="97" y="-6" type="line"/>
      <point x="138" y="-6" type="line"/>
      <point x="393" y="756" type="line"/>
      <point x="351" y="756" type="line"/>
    </contour>
    <contour>
      <point x="99" y="504" type="line"/>
      <point x="810" y="504" type="line"/>
      <point x="810" y="540" type="line"/>
      <point x="99" y="540" type="line"/>
    </contour>
  </outline>
</glyph>
<glyph name="dollar" format="1">
  <advance width="572"/>
  <unicode hex="0024"/>
  <outline>
    <contour>
      <point x="335.759" y="804" type="line"/>
      <point x="335.759" y="-101" type="line"/>
      <point x="370.511" y="-101" type="line"/>
      <point x="370.511" y="804" type="line"/>
    </contour>
    <contour>
      <point x="236.481" y="804" type="line"/>
      <point x="236.481" y="-101" type="line"/>
      <point x="267.789" y="-101" type="line"/>
      <point x="267.789" y="804" type="line"/>
    </contour>
    <component base="S"/>
  </outline>
</glyph>
<glyph name="ampersand" format="1">
  <advance width="890"/>
  <unicode hex="0026"/>
  <outline>
    <contour>
      <point x="893" y="54"/>
      <point x="845" y="-7"/>
      <point x="748" y="-7" type="curve"/>
      <point x="578" y="-7"/>
      <point x="215" y="430"/>
      <point x="215" y="599" type="curve"/>
      <point x="215" y="691"/>
      <point x="292" y="734"/>
      <point x="377" y="734" type="curve"/>
      <point x="467" y="734"/>
      <point x="519" y="674"/>
      <point x="519" y="605" type="curve"/>
      <point x="519" y="389"/>
      <point x="12" y="457"/>
      <point x="12" y="202" type="curve"/>
      <point x="12" y="67"/>
      <point x="135" y="-49"/>
      <point x="314" y="-49" type="curve"/>
      <point x="485" y="-49"/>
      <point x="682" y="72"/>
      <point x="696" y="404" type="curve"/>
      <point x="641" y="404" type="line"/>
      <point x="632" y="87"/>
      <point x="506" y="-27"/>
      <point x="314" y="-27" type="curve"/>
      <point x="167" y="-27"/>
      <point x="57" y="71"/>
      <point x="57" y="202" type="curve"/>
      <point x="57" y="451"/>
      <point x="564" y="351"/>
      <point x="564" y="605" type="curve"/>
      <point x="564" y="687"/>
      <point x="490" y="756"/>
      <point x="377" y="756" type="curve"/>
      <point x="266" y="756"/>
      <point x="171" y="697"/>
      <point x="171" y="599" type="curve"/>
      <point x="171" y="425"/>
      <point x="545" y="-49"/>
      <point x="748" y="-49" type="curve"/>
      <point x="867" y="-49"/>
      <point x="924" y="47"/>
      <point x="833" y="177" type="curve"/>
      <point x="807" y="159" type="line"/>
    </contour>
    <contour>
      <point x="387" y="738" type="move" name="top"/>
    </contour>
    <contour>
      <point x="387" y="-39" type="move" name="bottom"/>
    </contour>
  </outline>
</glyph>
<glyph name="asterisk" format="1">
  <advance width="600"/>
  <unicode hex="002A"/>
  <outline>
    <contour>
      <point x="198" y="654" type="line"/>
      <point x="227" y="674" type="line"/>
      <point x="380" y="466" type="line"/>
      <point x="351" y="446" type="line"/>
    </contour>
    <contour>
      <point x="308" y="431" type="line"/>
      <point x="270" y="431" type="line"/>
      <point x="270" y="689" type="line"/>
      <point x="308" y="689" type="line"/>
    </contour>
    <contour>
      <point x="308" y="431" type="line"/>
      <point x="270" y="431" type="line"/>
      <point x="270" y="689" type="line"/>
      <point x="308" y="689" type="line"/>
    </contour>
    <contour>
      <point x="172" y="503" type="line"/>
      <point x="161" y="538" type="line"/>
      <point x="406" y="617" type="line"/>
      <point x="417" y="582" type="line"/>
    </contour>
    <contour>
      <point x="172" y="503" type="line"/>
      <point x="161" y="538" type="line"/>
      <point x="406" y="617" type="line"/>
      <point x="417" y="582" type="line"/>
    </contour>
    <contour>
      <point x="198" y="654" type="line"/>
      <point x="227" y="674" type="line"/>
      <point x="380" y="466" type="line"/>
      <point x="351" y="446" type="line"/>
    </contour>
    <contour>
      <point x="350" y="674" type="line"/>
      <point x="379" y="654" type="line"/>
      <point x="228" y="446" type="line"/>
      <point x="199" y="466" type="line"/>
    </contour>
    <contour>
      <point x="350" y="674" type="line"/>
      <point x="379" y="654" type="line"/>
      <point x="228" y="446" type="line"/>
      <point x="199" y="466" type="line"/>
    </contour>
    <contour>
      <point x="416" y="537" type="line"/>
      <point x="406" y="504" type="line"/>
      <point x="162" y="583" type="line"/>
      <point x="172" y="616" type="line"/>
    </contour>
    <contour>
      <point x="416" y="537" type="line"/>
      <point x="406" y="504" type="line"/>
      <point x="162" y="583" type="line"/>
      <point x="172" y="616" type="line"/>
    </contour>
  </outline>
</glyph>
<glyph name="plus" format="1">
  <advance width="600"/>
  <unicode hex="002B"/>
  <outline>
    <contour>
      <point x="533" y="260" type="line"/>
      <point x="66" y="260" type="line"/>
      <point x="66" y="226" type="line"/>
      <point x="533" y="226" type="line"/>
    </contour>
    <contour>
      <point x="317" y="12" type="line"/>
      <point x="317" y="475" type="line"/>
      <point x="283" y="475" type="line"/>
      <point x="283" y="12" type="line"/>
    </contour>
  </outline>
</glyph>
<glyph name="comma" format="1">
  <advance width="360"/>
  <unicode hex="002C"/>
  <outline>
    <contour>
      <point x="149" y="34" type="line"/>
      <point x="149" y="-9" type="line"/>
      <point x="149" y="-33"/>
      <point x="148" y="-66"/>
      <point x="109" y="-100" type="curve"/>
      <point x="109" y="-131" type="line"/>
      <point x="155" y="-94"/>
      <point x="169" y="-46"/>
      <point x="169" y="-9" type="curve"/>
      <point x="169" y="34" type="line"/>
    </contour>
    <component base="period"/>
  </outline>
</glyph>
<glyph name="three" format="1">
  <advance width="537"/>
  <unicode hex="0033"/>
  <outline>
    <contour>
      <point x="481" y="700" type="line"/>
      <point x="71" y="700" type="line"/>
      <point x="71" y="671" type="line"/>
      <point x="436" y="671" type="line"/>
      <point x="199" y="411" type="line"/>
      <point x="226" y="384" type="line"/>
      <point x="242" y="388"/>
      <point x="257" y="389"/>
      <point x="275" y="389" type="curve"/>
      <point x="377" y="389"/>
      <point x="454" y="319"/>
      <point x="454" y="202" type="curve" smooth="yes"/>
      <point x="454" y="82"/>
      <point x="364" y="13"/>
      <point x="264" y="13" type="curve" smooth="yes"/>
      <point x="164" y="13"/>
      <point x="90" y="59"/>
      <point x="76" y="163" type="curve"/>
      <point x="34" y="163" type="line"/>
      <point x="51" y="45"/>
      <point x="142" y="-10"/>
      <point x="264" y="-10" type="curve" smooth="yes"/>
      <point x="386" y="-10"/>
      <point x="495" y="68"/>
      <point x="495" y="202" type="curve" smooth="yes"/>
      <point x="495" y="364"/>
      <point x="383" y="429"/>
      <point x="250" y="421" type="curve"/>
      <point x="481" y="671" type="line"/>
    </contour>
  </outline>
</glyph>
<glyph name="four" format="1">
  <advance width="577"/>
  <unicode hex="0034"/>
  <outline>
    <contour>
      <point x="34" y="268" type="line"/>
      <point x="34" y="243" type="line"/>
      <point x="547" y="242" type="line"/>
      <point x="547" y="273" type="line"/>
      <point x="80" y="273" type="line"/>
      <point x="401" y="678" type="line"/>
      <point x="383" y="700" type="line"/>
    </contour>
    <contour>
      <point x="383" y="700" type="line"/>
      <point x="380" y="674" type="line" smooth="yes"/>
      <point x="380" y="0" type="line"/>
      <point x="422" y="0" type="line"/>
      <point x="422" y="700" type="line"/>
    </contour>
  </outline>
</glyph>
<glyph name="five" format="1">
  <advance width="600"/>
  <unicode hex="0035"/>
  <outline>
    <contour>
      <point x="76" y="163" type="line"/>
      <point x="95" y="53"/>
      <point x="194" y="-10"/>
      <point x="304" y="-10" type="curve"/>
      <point x="425" y="-10"/>
      <point x="540" y="73"/>
      <point x="540" y="207" type="curve"/>
      <point x="540" y="351"/>
      <point x="431" y="425"/>
      <point x="308" y="425" type="curve" smooth="yes"/>
      <point x="215" y="425"/>
      <point x="164" y="390"/>
      <point x="118" y="346" type="curve"/>
      <point x="160" y="346" type="line"/>
      <point x="191" y="373"/>
      <point x="225" y="402"/>
      <point x="308" y="402" type="curve" smooth="yes"/>
      <point x="406" y="402"/>
      <point x="499" y="341"/>
      <point x="499" y="207" type="curve"/>
      <point x="499" y="88"/>
      <point x="404" y="13"/>
      <point x="304" y="13" type="curve"/>
      <point x="215" y="13"/>
      <point x="134" y="67"/>
      <point x="117" y="163" type="curve"/>
    </contour>
    <contour>
      <point x="160" y="360" type="line"/>
      <point x="160" y="700" type="line"/>
      <point x="118" y="700" type="line"/>
      <point x="118" y="346" type="line"/>
      <point x="160" y="346" type="line"/>
    </contour>
    <contour>
      <point x="499" y="670" type="line"/>
      <point x="499" y="700" type="line"/>
      <point x="142" y="700" type="line"/>
      <point x="142" y="670" type="line"/>
    </contour>
  </outline>
</glyph>
<glyph name="six" format="1">
  <advance width="547"/>
  <unicode hex="0036"/>
  <outline>
    <contour>
      <point x="150" y="415"/>
      <point x="41" y="337"/>
      <point x="41" y="203" type="curve"/>
      <point x="41" y="69"/>
      <point x="151" y="-10"/>
      <point x="273" y="-10" type="curve"/>
      <point x="395" y="-10"/>
      <point x="504" y="68"/>
      <point x="504" y="202" type="curve"/>
      <point x="504" y="336"/>
      <point x="394" y="415"/>
      <point x="272" y="415" type="curve"/>
    </contour>
    <contour>
      <point x="373" y="391"/>
      <point x="462" y="323"/>
      <point x="462" y="203" type="curve"/>
      <point x="462" y="83"/>
      <point x="372" y="14"/>
      <point x="272" y="14" type="curve"/>
      <point x="172" y="14"/>
      <point x="83" y="82"/>
      <point x="83" y="202" type="curve"/>
      <point x="83" y="322"/>
      <point x="173" y="391"/>
      <point x="273" y="391" type="curve"/>
    </contour>
    <contour>
      <point x="312" y="700" type="line"/>
      <point x="79" y="325" type="line"/>
      <point x="132" y="345" type="line"/>
      <point x="352" y="700" type="line"/>
    </contour>
  </outline>
</glyph>
<glyph name="seven" format="1">
  <advance width="504"/>
  <unicode hex="0037"/>
  <outline>
    <contour>
      <point x="448" y="700" type="line"/>
      <point x="413" y="700" type="line"/>
      <point x="73" y="0" type="line"/>
      <point x="119" y="0" type="line"/>
    </contour>
    <contour>
      <point x="406" y="670" type="line"/>
      <point x="439" y="700" type="line"/>
      <point x="61" y="700" type="line"/>
      <point x="61" y="670" type="line"/>
    </contour>
    <contour>
      <point x="199" y="670" type="move"/>
    </contour>
  </outline>
</glyph>
<glyph name="eight" format="1">
  <advance width="527"/>
  <unicode hex="0038"/>
  <outline>
    <contour>
      <point x="141" y="405"/>
      <point x="32" y="330"/>
      <point x="32" y="203" type="curve" smooth="yes"/>
      <point x="32" y="75"/>
      <point x="142" y="0"/>
      <point x="264" y="0" type="curve" smooth="yes"/>
      <point x="387" y="0"/>
      <point x="495" y="74"/>
      <point x="495" y="202" type="curve" smooth="yes"/>
      <point x="495" y="329"/>
      <point x="385" y="405"/>
      <point x="263" y="405" type="curve" smooth="yes"/>
    </contour>
    <contour>
      <point x="364" y="385"/>
      <point x="453" y="319"/>
      <point x="453" y="203" type="curve" smooth="yes"/>
      <point x="453" y="86"/>
      <point x="362" y="20"/>
      <point x="263" y="20" type="curve" smooth="yes"/>
      <point x="164" y="20"/>
      <point x="74" y="85"/>
      <point x="74" y="202" type="curve" smooth="yes"/>
      <point x="74" y="318"/>
      <point x="164" y="385"/>
      <point x="264" y="385" type="curve" smooth="yes"/>
    </contour>
    <contour>
      <point x="172" y="705"/>
      <point x="76" y="649"/>
      <point x="76" y="545" type="curve" smooth="yes"/>
      <point x="76" y="441"/>
      <point x="173" y="385"/>
      <point x="264" y="385" type="curve" smooth="yes"/>
      <point x="355" y="385"/>
      <point x="451" y="440"/>
      <point x="451" y="544" type="curve" smooth="yes"/>
      <point x="451" y="648"/>
      <point x="354" y="705"/>
      <point x="263" y="705" type="curve" smooth="yes"/>
    </contour>
    <contour>
      <point x="327" y="685"/>
      <point x="408" y="646"/>
      <point x="408" y="545" type="curve" smooth="yes"/>
      <point x="408" y="462"/>
      <point x="342" y="405"/>
      <point x="263" y="405" type="curve" smooth="yes"/>
      <point x="184" y="405"/>
      <point x="119" y="462"/>
      <point x="119" y="544" type="curve" smooth="yes"/>
      <point x="119" y="644"/>
      <point x="201" y="685"/>
      <point x="264" y="685" type="curve" smooth="yes"/>
    </contour>
  </outline>
</glyph>
<glyph name="nine" format="1">
  <advance width="600"/>
  <unicode hex="0039"/>
  <outline>
    <contour>
      <point x="188" y="712"/>
      <point x="79" y="637"/>
      <point x="79" y="510" type="curve"/>
      <point x="79" y="382"/>
      <point x="189" y="307"/>
      <point x="311" y="307" type="curve"/>
      <point x="434" y="307"/>
      <point x="542" y="381"/>
      <point x="542" y="509" type="curve"/>
      <point x="542" y="636"/>
      <point x="432" y="712"/>
      <point x="310" y="712" type="curve"/>
    </contour>
    <contour>
      <point x="452" y="386" type="line"/>
      <point x="213" y="0" type="line"/>
      <point x="268" y="0" type="line"/>
      <point x="519" y="415" type="line"/>
    </contour>
    <contour>
      <point x="411" y="692"/>
      <point x="500" y="626"/>
      <point x="500" y="510" type="curve"/>
      <point x="500" y="393"/>
      <point x="409" y="327"/>
      <point x="310" y="327" type="curve"/>
      <point x="211" y="327"/>
      <point x="121" y="392"/>
      <point x="121" y="509" type="curve"/>
      <point x="121" y="625"/>
      <point x="211" y="692"/>
      <point x="311" y="692" type="curve"/>
    </contour>
    <contour>
      <point x="453" y="363" type="line"/>
      <point x="220" y="-12" type="line"/>
      <point x="273" y="8" type="line"/>
      <point x="493" y="363" type="line"/>
    </contour>
  </outline>
</glyph>
<glyph name="less" format="1">
  <advance width="600"/>
  <unicode hex="003C"/>
  <outline>
    <contour>
      <point x="542" y="76" type="line"/>
      <point x="122" y="288" type="line"/>
      <point x="41" y="288" type="line"/>
      <point x="542" y="28" type="line"/>
    </contour>
    <contour>
      <point x="542" y="546" type="line"/>
      <point x="42" y="286" type="line"/>
      <point x="122" y="286" type="line"/>
      <point x="542" y="498" type="line"/>
    </contour>
  </outline>
</glyph>
<glyph name="question" format="1">
  <advance width="501"/>
  <unicode hex="003F"/>
  <outline>
    <contour>
      <point x="354.603" y="701"/>
      <point x="413" y="652.336"/>
      <point x="413" y="578" type="curve"/>
      <point x="413" y="499.942"/>
      <point x="340.926" y="482.411"/>
      <point x="266.734" y="452.148" type="curve"/>
      <point x="208.991" y="428.028"/>
      <point x="139" y="397.597"/>
      <point x="139" y="327" type="curve"/>
      <point x="139" y="254.463"/>
      <point x="203.452" y="216"/>
      <point x="275" y="216" type="curve"/>
      <point x="327.175" y="216"/>
      <point x="365.872" y="235.902"/>
      <point x="389.217" y="276.988" type="curve"/>
      <point x="385.807" y="274.093" type="line"/>
      <point x="366.807" y="280.093" type="line"/>
      <point x="359.771" y="281.019" type="line"/>
      <point x="340.157" y="246.150"/>
      <point x="308.965" y="231"/>
      <point x="280" y="231" type="curve"/>
      <point x="228.994" y="231"/>
      <point x="192" y="270.915"/>
      <point x="192" y="327" type="curve"/>
      <point x="192" y="392.450"/>
      <point x="240.859" y="424.359"/>
      <point x="274.505" y="439.817" type="curve"/>
      <point x="342.142" y="471.615"/>
      <point x="466" y="495.884"/>
      <point x="466" y="580" type="curve"/>
      <point x="466" y="648.953"/>
      <point x="403.059" y="719"/>
      <point x="275" y="719" type="curve"/>
      <point x="189.864" y="719"/>
      <point x="107.139" y="677.114"/>
      <point x="76.617" y="615.117" type="curve"/>
      <point x="78.712" y="617.673" type="line"/>
      <point x="107.712" y="598.673" type="line"/>
      <point x="116.385" y="597.882" type="line"/>
      <point x="146.002" y="658.172"/>
      <point x="196.443" y="701"/>
      <point x="275" y="701" type="curve"/>
    </contour>
    <component base="period" xOffset="140"/>
  </outline>
</glyph>
<glyph name="at" format="1">
  <advance width="968"/>
  <unicode hex="0040"/>
  <outline>
    <contour>
      <point x="203" y="709"/>
      <point x="19" y="497"/>
      <point x="19" y="233" type="curve"/>
      <point x="19" y="-28"/>
      <point x="204" y="-238"/>
      <point x="484" y="-238" type="curve"/>
      <point x="593" y="-238"/>
      <point x="685" y="-214"/>
      <point x="758" y="-165" type="curve"/>
      <point x="725" y="-134" type="line"/>
      <point x="659" y="-178"/>
      <point x="574" y="-197"/>
      <point x="484" y="-197" type="curve"/>
      <point x="238" y="-197"/>
      <point x="67" y="-13"/>
      <point x="67" y="233" type="curve"/>
      <point x="67" y="481"/>
      <point x="239" y="669"/>
      <point x="484" y="669" type="curve"/>
      <point x="730" y="669"/>
      <point x="901" y="481"/>
      <point x="901" y="233" type="curve"/>
      <point x="901" y="81"/>
      <point x="843" y="33"/>
      <point x="781" y="33" type="curve"/>
      <point x="720" y="33"/>
      <point x="685" y="75"/>
      <point x="685" y="123" type="curve"/>
      <point x="685" y="312" type="line"/>
      <point x="685" y="396"/>
      <point x="668" y="501"/>
      <point x="492" y="501" type="curve"/>
      <point x="393" y="501"/>
      <point x="314" y="448"/>
      <point x="303" y="388" type="curve"/>
      <point x="363" y="387" type="line"/>
      <point x="375" y="430"/>
      <point x="411" y="479"/>
      <point x="492" y="479" type="curve"/>
      <point x="622" y="479"/>
      <point x="642" y="385"/>
      <point x="643" y="309" type="curve"/>
      <point x="643" y="124" type="line"/>
      <point x="643" y="56"/>
      <point x="689" y="0"/>
      <point x="774" y="0" type="curve"/>
      <point x="891" y="0"/>
      <point x="949" y="93"/>
      <point x="949" y="233" type="curve"/>
      <point x="949" y="497"/>
      <point x="765" y="709"/>
      <point x="484" y="709" type="curve"/>
    </contour>
    <contour>
      <point x="658" y="299"/>
      <point x="567" y="282"/>
      <point x="463" y="271" type="curve" smooth="yes"/>
      <point x="306" y="252"/>
      <point x="259" y="184"/>
      <point x="259" y="119" type="curve"/>
      <point x="259" y="38"/>
      <point x="335" y="-16"/>
      <point x="453" y="-16" type="curve" smooth="yes"/>
      <point x="578" y="-16"/>
      <point x="654" y="82"/>
      <point x="661" y="172" type="curve"/>
      <point x="648" y="189" type="line"/>
      <point x="648" y="61"/>
      <point x="536" y="3"/>
      <point x="453" y="3" type="curve" smooth="yes"/>
      <point x="339" y="3"/>
      <point x="308" y="74"/>
      <point x="308" y="123" type="curve"/>
      <point x="308" y="200"/>
      <point x="379" y="245"/>
      <point x="460" y="252" type="curve" smooth="yes"/>
      <point x="585" y="266"/>
      <point x="668" y="295"/>
      <point x="668" y="371" type="curve"/>
      <point x="640" y="375" type="line"/>
    </contour>
  </outline>
</glyph>
<glyph name="A" format="1">
  <advance width="678"/>
  <unicode hex="0041"/>
  <outline>
    <contour>
      <point x="329" y="700" type="line"/>
      <point x="611" y="0" type="line"/>
      <point x="658" y="0" type="line"/>
      <point x="374" y="700" type="line"/>
    </contour>
    <contour>
      <point x="304" y="700" type="line"/>
      <point x="20" y="0" type="line"/>
      <point x="67" y="0" type="line"/>
      <point x="349" y="700" type="line"/>
    </contour>
    <contour>
      <point x="141" y="246.121" type="line"/>
      <point x="141" y="219.121" type="line"/>
      <point x="542" y="219.121" type="line"/>
      <point x="542" y="246.121" type="line"/>
    </contour>
    <contour>
      <point x="637" y="10" type="move" name="ogonek"/>
    </contour>
    <contour>
      <point x="339" y="700" type="move" name="top"/>
    </contour>
  </outline>
</glyph>
<glyph name="B" format="1">
  <advance width="599"/>
  <unicode hex="0042"/>
  <outline>
    <contour>
      <point x="74" y="412" type="line"/>
      <point x="74" y="391" type="line"/>
      <point x="288" y="391" type="line" smooth="yes"/>
      <point x="412" y="391"/>
      <point x="508" y="335"/>
      <point x="508" y="208" type="curve" smooth="yes"/>
      <point x="508" y="85"/>
      <point x="416" y="31"/>
      <point x="283" y="31" type="curve" smooth="yes"/>
      <point x="94" y="31" type="line"/>
      <point x="94" y="0" type="line"/>
      <point x="293" y="0" type="line" smooth="yes"/>
      <point x="447" y="0"/>
      <point x="552" y="66"/>
      <point x="552" y="208" type="curve" smooth="yes"/>
      <point x="552" y="346"/>
      <point x="459" y="412"/>
      <point x="296" y="412" type="curve" smooth="yes"/>
    </contour>
    <contour>
      <point x="56" y="700" type="line"/>
      <point x="56" y="0" type="line"/>
      <point x="99" y="0" type="line"/>
      <point x="99" y="700" type="line"/>
    </contour>
    <contour>
      <point x="88" y="700" type="line"/>
      <point x="88" y="669" type="line"/>
      <point x="230" y="669" type="line" smooth="yes"/>
      <point x="326" y="669"/>
      <point x="382" y="618"/>
      <point x="382" y="542" type="curve" smooth="yes"/>
      <point x="382" y="467"/>
      <point x="328" y="412"/>
      <point x="226" y="412" type="curve" smooth="yes"/>
      <point x="74.122" y="412" type="line"/>
      <point x="74.122" y="401" type="line"/>
      <point x="222" y="402" type="line" smooth="yes"/>
      <point x="332.997" y="402.745"/>
      <point x="424" y="437"/>
      <point x="424" y="553" type="curve" smooth="yes"/>
      <point x="424" y="665"/>
      <point x="339" y="700"/>
      <point x="230" y="700" type="curve" smooth="yes"/>
    </contour>
  </outline>
</glyph>
<glyph name="C" format="1">
  <advance width="693"/>
  <unicode hex="0043"/>
  <outline>
    <contour>
      <point x="172" y="705"/>
      <point x="34" y="546"/>
      <point x="34" y="348" type="curve"/>
      <point x="34" y="152"/>
      <point x="173" y="-5"/>
      <point x="383" y="-5" type="curve"/>
      <point x="497" y="-5"/>
      <point x="587" y="36"/>
      <point x="648" y="107" type="curve"/>
      <point x="606" y="127" type="line"/>
      <point x="552" y="64"/>
      <point x="468" y="26"/>
      <point x="383" y="26" type="curve"/>
      <point x="210" y="26"/>
      <point x="88" y="164"/>
      <point x="88" y="348" type="curve"/>
      <point x="88" y="533"/>
      <point x="211" y="674"/>
      <point x="383" y="674" type="curve"/>
      <point x="470" y="674"/>
      <point x="556" y="634"/>
      <point x="610" y="567" type="curve"/>
      <point x="651" y="588" type="line"/>
      <point x="590" y="662"/>
      <point x="498" y="705"/>
      <point x="383" y="705" type="curve"/>
    </contour>
    <contour>
      <point x="383" y="705" type="move" name="top"/>
    </contour>
    <contour>
      <point x="383" y="-2" type="move" name="bottom"/>
    </contour>
  </outline>
</glyph>
<glyph name="D" format="1">
  <advance width="610"/>
  <unicode hex="0044"/>
  <outline>
    <contour>
      <point x="64" y="700" type="line"/>
      <point x="64" y="658" type="line"/>
      <point x="191" y="659" type="line"/>
      <point x="375" y="659"/>
      <point x="527" y="585"/>
      <point x="527" y="351" type="curve"/>
      <point x="527" y="125"/>
      <point x="399" y="41"/>
      <point x="209" y="41" type="curve"/>
      <point x="62" y="41" type="line"/>
      <point x="62" y="0" type="line"/>
      <point x="209" y="0" type="line"/>
      <point x="418" y="0"/>
      <point x="575" y="104"/>
      <point x="575" y="351" type="curve"/>
      <point x="575" y="602"/>
      <point x="397" y="700"/>
      <point x="191" y="700" type="curve"/>
    </contour>
    <contour>
      <point x="30" y="700" type="line"/>
      <point x="30" y="0" type="line"/>
      <point x="72" y="0" type="line"/>
      <point x="72" y="700" type="line"/>
    </contour>
    <contour>
      <point x="292" y="350" type="move" name="center"/>
    </contour>
    <contour>
      <point x="292" y="738" type="move" name="top"/>
    </contour>
  </outline>
</glyph>
<glyph name="E" format="1">
  <advance width="633"/>
  <unicode hex="0045"/>
  <outline>
    <contour>
      <point x="59" y="700" type="line"/>
      <point x="59" y="0" type="line"/>
      <point x="101" y="0" type="line"/>
      <point x="101" y="700" type="line"/>
    </contour>
    <contour>
      <point x="96" y="30" type="line"/>
      <point x="96" y="0" type="line"/>
      <point x="586" y="0" type="line"/>
      <point x="586" y="30" type="line"/>
    </contour>
    <contour>
      <point x="96" y="370" type="line"/>
      <point x="96" y="338" type="line"/>
      <point x="564" y="338" type="line"/>
      <point x="564" y="370" type="line"/>
    </contour>
    <contour>
      <point x="96" y="700" type="line"/>
      <point x="96" y="669" type="line"/>
      <point x="575" y="669" type="line"/>
      <point x="575" y="700" type="line"/>
    </contour>
    <contour>
      <point x="503" y="0" type="move" name="ogonek"/>
    </contour>
    <contour>
      <point x="316" y="0" type="move" name="bottom"/>
    </contour>
    <contour>
      <point x="326" y="700" type="move" name="top"/>
    </contour>
  </outline>
</glyph>
<glyph name="G" format="1">
  <advance width="737"/>
  <unicode hex="0047"/>
  <outline>
    <contour>
      <point x="173" y="705"/>
      <point x="32" y="546"/>
      <point x="32" y="348" type="curve" smooth="yes"/>
      <point x="32" y="150"/>
      <point x="173" y="-3"/>
      <point x="379" y="-5" type="curve" smooth="yes"/>
      <point x="567" y="-7"/>
      <point x="661" y="121"/>
      <point x="665" y="301" type="curve"/>
      <point x="650" y="296" type="line"/>
      <point x="650" y="190"/>
      <point x="578" y="26"/>
      <point x="383" y="26" type="curve" smooth="yes"/>
      <point x="212" y="26"/>
      <point x="86" y="166"/>
      <point x="86" y="348" type="curve" smooth="yes"/>
      <point x="86" y="534"/>
      <point x="213" y="674"/>
      <point x="384" y="674" type="curve" smooth="yes"/>
      <point x="472" y="674"/>
      <point x="554" y="634"/>
      <point x="608" y="567" type="curve"/>
      <point x="649" y="588" type="line"/>
      <point x="588" y="662"/>
      <point x="499" y="705"/>
      <point x="384" y="705" type="curve" smooth="yes"/>
    </contour>
    <contour>
      <point x="650" y="370" type="line"/>
      <point x="650" y="291" type="line"/>
      <point x="661" y="257" type="line"/>
      <point x="661" y="0" type="line"/>
      <point x="692" y="0" type="line"/>
      <point x="692" y="370" type="line"/>
    </contour>
    <contour>
      <point x="407" y="370" type="line"/>
      <point x="407" y="339" type="line"/>
      <point x="691" y="339" type="line"/>
      <point x="691" y="370" type="line"/>
    </contour>
    <contour>
      <point x="384" y="705" type="move" name="top"/>
    </contour>
    <contour>
      <point x="370" y="-38" type="move" name="bottom"/>
    </contour>
  </outline>
</glyph>
<glyph name="I" format="1">
  <advance width="208"/>
  <unicode hex="0049"/>
  <outline>
    <contour>
      <point x="125" y="700" type="line"/>
      <point x="83" y="700" type="line"/>
      <point x="83" y="0" type="line"/>
      <point x="125" y="0" type="line"/>
    </contour>
    <contour>
      <point x="103" y="0" type="move" name="ogonek"/>
    </contour>
    <contour>
      <point x="105" y="700" type="move" name="top"/>
    </contour>
  </outline>
</glyph>
<glyph name="K" format="1">
  <advance width="587"/>
  <unicode hex="004B"/>
  <outline>
    <contour>
      <point x="455" y="700" type="line"/>
      <point x="71" y="280" type="line"/>
      <point x="94" y="254" type="line"/>
      <point x="501" y="700" type="line"/>
    </contour>
    <contour>
      <point x="99" y="700" type="line"/>
      <point x="56" y="700" type="line"/>
      <point x="56" y="0" type="line"/>
      <point x="99" y="0" type="line"/>
    </contour>
    <contour>
      <point x="552" y="0" type="line"/>
      <point x="262" y="446" type="line"/>
      <point x="226" y="423" type="line"/>
      <point x="502" y="0" type="line"/>
    </contour>
    <contour>
      <point x="255" y="700" type="move" name="top"/>
    </contour>
    <contour>
      <point x="285" y="-38" type="move" name="bottom"/>
    </contour>
  </outline>
</glyph>
<glyph name="L" format="1">
  <advance width="577"/>
  <unicode hex="004C"/>
  <outline>
    <contour>
      <point x="98" y="700" type="line"/>
      <point x="56" y="700" type="line"/>
      <point x="56" y="0" type="line"/>
      <point x="98" y="0" type="line"/>
    </contour>
    <contour>
      <point x="535" y="0" type="line"/>
      <point x="535" y="30" type="line"/>
      <point x="82" y="30" type="line"/>
      <point x="82" y="0" type="line"/>
    </contour>
    <contour>
      <point x="263" y="700" type="move" name="top"/>
    </contour>
    <contour>
      <point x="285" y="-38" type="move" name="bottom"/>
    </contour>
    <contour>
      <point x="586" y="738" type="move" name="topright"/>
    </contour>
  </outline>
</glyph>
<glyph name="M" format="1">
  <advance width="793"/>
  <unicode hex="004D"/>
  <outline>
    <contour>
      <point x="63" y="696" type="line"/>
      <point x="371" y="0" type="line"/>
      <point x="415" y="0" type="line"/>
      <point x="112" y="700" type="line"/>
    </contour>
    <contour>
      <point x="56" y="700" type="line"/>
      <point x="56" y="0" type="line"/>
      <point x="98" y="0" type="line"/>
      <point x="98" y="672" type="line"/>
      <point x="112" y="700" type="line"/>
    </contour>
    <contour>
      <point x="379" y="0" type="line"/>
      <point x="423" y="0" type="line"/>
      <point x="730" y="696" type="line"/>
      <point x="680" y="700" type="line"/>
    </contour>
    <contour>
      <point x="680" y="700" type="line"/>
      <point x="695" y="668" type="line"/>
      <point x="695" y="0" type="line"/>
      <point x="737" y="0" type="line"/>
      <point x="737" y="700" type="line" smooth="yes"/>
    </contour>
  </outline>
</glyph>
<glyph name="N" format="1">
  <advance width="599"/>
  <unicode hex="004E"/>
  <outline>
    <contour>
      <point x="59" y="687" type="line"/>
      <point x="498" y="0" type="line"/>
      <point x="531" y="21" type="line"/>
      <point x="100" y="700" type="line"/>
    </contour>
    <contour>
      <point x="56" y="700" type="line"/>
      <point x="56" y="0" type="line"/>
      <point x="99" y="0" type="line"/>
      <point x="99" y="700" type="line"/>
    </contour>
    <contour>
      <point x="500" y="700" type="line"/>
      <point x="500" y="36" type="line"/>
      <point x="498" y="0" type="line"/>
      <point x="543" y="0" type="line"/>
      <point x="543" y="700" type="line"/>
    </contour>
    <contour>
      <point x="310" y="700" type="move" name="top"/>
    </contour>
    <contour>
      <point x="300" y="-38" type="move" name="bottom"/>
    </contour>
  </outline>
</glyph>
<glyph name="O" format="1">
  <advance width="758"/>
  <unicode hex="004F"/>
  <outline>
    <contour>
      <point x="590" y="-5"/>
      <point x="728" y="151"/>
      <point x="728" y="348" type="curve"/>
      <point x="728" y="546"/>
      <point x="590" y="705"/>
      <point x="379" y="705" type="curve"/>
      <point x="168" y="705"/>
      <point x="30" y="546"/>
      <point x="30" y="348" type="curve"/>
      <point x="30" y="152"/>
      <point x="169" y="-5"/>
      <point x="379" y="-5" type="curve"/>
    </contour>
    <contour>
      <point x="195" y="26"/>
      <point x="73" y="164"/>
      <point x="73" y="348" type="curve"/>
      <point x="73" y="533"/>
      <point x="196" y="674"/>
      <point x="379" y="674" type="curve"/>
      <point x="563" y="674"/>
      <point x="685" y="533"/>
      <point x="685" y="348" type="curve"/>
      <point x="685" y="164"/>
      <point x="563" y="26"/>
      <point x="379" y="26" type="curve"/>
    </contour>
    <contour>
      <point x="379" y="700" type="move" name="top"/>
    </contour>
  </outline>
</glyph>
<glyph name="P" format="1">
  <advance width="475"/>
  <unicode hex="0050"/>
  <outline>
    <contour>
      <point x="98" y="700" type="line"/>
      <point x="98" y="669" type="line"/>
      <point x="240" y="669" type="line"/>
      <point x="333" y="669"/>
      <point x="403" y="621"/>
      <point x="403" y="520" type="curve"/>
      <point x="403" y="420"/>
      <point x="336" y="368"/>
      <point x="237" y="368" type="curve"/>
      <point x="77" y="368" type="line"/>
      <point x="77" y="340" type="line"/>
      <point x="237" y="340" type="line"/>
      <point x="347" y="340"/>
      <point x="445" y="383"/>
      <point x="445" y="520" type="curve"/>
      <point x="445" y="655"/>
      <point x="341" y="700"/>
      <point x="243" y="700" type="curve"/>
    </contour>
    <contour>
      <point x="56" y="700" type="line"/>
      <point x="56" y="0" type="line"/>
      <point x="98" y="0" type="line"/>
      <point x="98" y="700" type="line"/>
    </contour>
  </outline>
</glyph>
<glyph name="Q" format="1">
  <advance width="772"/>
  <unicode hex="0051"/>
  <outline>
    <contour>
      <point x="169" y="705"/>
      <point x="31" y="546"/>
      <point x="31" y="348" type="curve"/>
      <point x="31" y="152"/>
      <point x="170" y="-5"/>
      <point x="369" y="-5" type="curve"/>
      <point x="569" y="-5"/>
      <point x="706" y="151"/>
      <point x="706" y="348" type="curve"/>
      <point x="706" y="546"/>
      <point x="568" y="705"/>
      <point x="369" y="705" type="curve"/>
    </contour>
    <contour>
      <point x="384" y="262" type="line"/>
      <point x="665" y="0" type="line"/>
      <point x="714" y="0" type="line"/>
      <point x="429" y="262" type="line"/>
    </contour>
    <contour>
      <point x="542" y="674"/>
      <point x="664" y="533"/>
      <point x="664" y="348" type="curve"/>
      <point x="664" y="164"/>
      <point x="541" y="26"/>
      <point x="369" y="26" type="curve"/>
      <point x="196" y="26"/>
      <point x="73" y="164"/>
      <point x="73" y="348" type="curve"/>
      <point x="73" y="533"/>
      <point x="197" y="674"/>
      <point x="369" y="674" type="curve"/>
    </contour>
  </outline>
</glyph>
<glyph name="R" format="1">
  <advance width="570"/>
  <unicode hex="0052"/>
  <outline>
    <contour>
      <point x="560" y="0" type="line"/>
      <point x="293" y="407" type="line"/>
      <point x="246" y="400" type="line"/>
      <point x="510" y="0" type="line"/>
    </contour>
    <contour>
      <point x="99" y="700" type="line"/>
      <point x="56" y="700" type="line"/>
      <point x="56" y="0" type="line"/>
      <point x="99" y="0" type="line"/>
    </contour>
    <contour>
      <point x="233" y="390" type="line"/>
      <point x="344" y="390"/>
      <point x="435" y="425"/>
      <point x="435" y="553" type="curve" smooth="yes"/>
      <point x="435" y="665"/>
      <point x="350" y="700"/>
      <point x="241" y="700" type="curve"/>
      <point x="89" y="700" type="line"/>
      <point x="89" y="669" type="line"/>
      <point x="135" y="669"/>
      <point x="207" y="669"/>
      <point x="241" y="669" type="curve"/>
      <point x="337" y="669"/>
      <point x="393" y="620"/>
      <point x="393" y="542" type="curve" smooth="yes"/>
      <point x="393" y="465"/>
      <point x="339" y="412"/>
      <point x="237" y="412" type="curve"/>
      <point x="88" y="412" type="line"/>
      <point x="88" y="389" type="line"/>
    </contour>
    <contour>
      <point x="274" y="700" type="move" name="top"/>
    </contour>
    <contour>
      <point x="303" y="-38" type="move" name="bottom"/>
    </contour>
  </outline>
</glyph>
<glyph name="S" format="1">
  <advance width="579"/>
  <unicode hex="0053"/>
  <outline>
    <contour>
      <point x="155" y="708"/>
      <point x="87" y="636"/>
      <point x="87" y="544" type="curve" smooth="yes"/>
      <point x="87" y="451"/>
      <point x="154" y="403"/>
      <point x="293" y="358" type="curve" smooth="yes"/>
      <point x="394" y="325"/>
      <point x="503" y="299"/>
      <point x="503" y="190" type="curve" smooth="yes"/>
      <point x="503" y="95"/>
      <point x="441" y="20"/>
      <point x="304" y="20" type="curve" smooth="yes"/>
      <point x="169" y="20"/>
      <point x="100" y="83"/>
      <point x="69" y="172" type="curve"/>
      <point x="30" y="152" type="line"/>
      <point x="73" y="57"/>
      <point x="155" y="-7"/>
      <point x="304" y="-7" type="curve" smooth="yes"/>
      <point x="476" y="-7"/>
      <point x="549" y="83"/>
      <point x="549" y="190" type="curve" smooth="yes"/>
      <point x="549" y="321"/>
      <point x="399" y="350"/>
      <point x="303" y="382" type="curve" smooth="yes"/>
      <point x="159" y="430"/>
      <point x="131" y="472"/>
      <point x="131" y="544" type="curve" smooth="yes"/>
      <point x="131" y="623"/>
      <point x="182" y="683"/>
      <point x="299" y="683" type="curve" smooth="yes"/>
      <point x="378" y="683"/>
      <point x="437" y="651"/>
      <point x="457" y="593" type="curve"/>
      <point x="499" y="604" type="line"/>
      <point x="471" y="673"/>
      <point x="393" y="708"/>
      <point x="299" y="708" type="curve" smooth="yes"/>
    </contour>
    <contour>
      <point x="288" y="700" type="move" name="top"/>
    </contour>
    <contour>
      <point x="288" y="-39" type="move" name="bottom"/>
    </contour>
  </outline>
</glyph>
<glyph name="T" format="1">
  <advance width="667"/>
  <unicode hex="0054"/>
  <outline>
    <contour>
      <point x="355" y="700" type="line"/>
      <point x="313" y="700" type="line"/>
      <point x="313" y="0" type="line"/>
      <point x="355" y="0" type="line"/>
    </contour>
    <contour>
      <point x="647" y="670" type="line"/>
      <point x="647" y="700" type="line"/>
      <point x="20" y="700" type="line"/>
      <point x="20" y="670" type="line"/>
    </contour>
    <contour>
      <point x="334" y="350" type="move" name="center"/>
    </contour>
    <contour>
      <point x="334" y="0" type="move" name="bottom"/>
    </contour>
    <contour>
      <point x="334" y="700" type="move" name="top"/>
    </contour>
  </outline>
</glyph>
<glyph name="U" format="1">
  <advance width="622"/>
  <unicode hex="0055"/>
  <outline>
    <contour>
      <point x="561" y="700" type="line"/>
      <point x="519" y="700" type="line"/>
      <point x="519" y="212" type="line"/>
      <point x="519" y="75"/>
      <point x="428" y="15"/>
      <point x="311" y="15" type="curve"/>
      <point x="194" y="15"/>
      <point x="103" y="75"/>
      <point x="103" y="212" type="curve"/>
      <point x="103" y="700" type="line"/>
      <point x="61" y="700" type="line"/>
      <point x="60" y="212" type="line"/>
      <point x="60" y="58"/>
      <point x="162" y="-12"/>
      <point x="311" y="-12" type="curve"/>
      <point x="460" y="-12"/>
      <point x="562" y="58"/>
      <point x="562" y="212" type="curve"/>
    </contour>
    <contour>
      <point x="311" y="-12" type="move" name="ogonek"/>
    </contour>
    <contour>
      <point x="311" y="700" type="move" name="top"/>
    </contour>
  </outline>
</glyph>
<glyph name="V" format="1">
  <advance width="629"/>
  <unicode hex="0056"/>
  <outline>
    <contour>
      <point x="547" y="700" type="line"/>
      <point x="307" y="0" type="line"/>
      <point x="345" y="0" type="line"/>
      <point x="585" y="700" type="line"/>
    </contour>
    <contour>
      <point x="283" y="0" type="line"/>
      <point x="321" y="0" type="line"/>
      <point x="82" y="700" type="line"/>
      <point x="44" y="700" type="line"/>
    </contour>
  </outline>
</glyph>
<glyph name="W" format="1">
  <advance width="802"/>
  <unicode hex="0057"/>
  <outline>
    <contour>
      <point x="555" y="0" type="line"/>
      <point x="593" y="0" type="line"/>
      <point x="421" y="689" type="line"/>
      <point x="389" y="689" type="line"/>
    </contour>
    <contour>
      <point x="195" y="0" type="line"/>
      <point x="224" y="0" type="line"/>
      <point x="79" y="700" type="line"/>
      <point x="39" y="700" type="line"/>
    </contour>
    <contour>
      <point x="377" y="689" type="line"/>
      <point x="204" y="0" type="line"/>
      <point x="243" y="0" type="line"/>
      <point x="408" y="689" type="line"/>
    </contour>
    <contour>
      <point x="723" y="700" type="line"/>
      <point x="573" y="0" type="line"/>
      <point x="603" y="0" type="line"/>
      <point x="763" y="700" type="line"/>
    </contour>
    <contour>
      <point x="398" y="700" type="move" name="top"/>
    </contour>
  </outline>
</glyph>
<glyph name="X" format="1">
  <advance width="753"/>
  <unicode hex="0058"/>
  <outline>
    <contour>
      <point x="617" y="700" type="line"/>
      <point x="381" y="401" type="line"/>
      <point x="359" y="383" type="line"/>
      <point x="57" y="0" type="line"/>
      <point x="111" y="0" type="line"/>
      <point x="384" y="345" type="line"/>
      <point x="408" y="366" type="line"/>
      <point x="671" y="700" type="line"/>
    </contour>
    <contour>
      <point x="696" y="0" type="line"/>
      <point x="157" y="700" type="line"/>
      <point x="106" y="700" type="line"/>
      <point x="643" y="0" type="line"/>
    </contour>
  </outline>
</glyph>
<glyph name="Y" format="1">
  <advance width="573"/>
  <unicode hex="0059"/>
  <outline>
    <contour>
      <point x="10" y="700" type="line"/>
      <point x="56" y="700" type="line"/>
      <point x="302.765" y="303.036" type="line"/>
      <point x="273.554" y="296.730" type="line"/>
    </contour>
    <contour>
      <point x="517" y="700" type="line"/>
      <point x="563" y="700" type="line"/>
      <point x="298.125" y="296.202" type="line"/>
      <point x="269.141" y="303.262" type="line"/>
    </contour>
    <contour>
      <point x="307" y="0" type="line"/>
      <point x="265" y="0" type="line"/>
      <point x="265" y="337.421" type="line"/>
      <point x="307" y="337.421" type="line"/>
    </contour>
    <contour>
      <point x="287" y="700" type="move" name="top"/>
    </contour>
  </outline>
</glyph>
<glyph name="Z" format="1">
  <advance width="555"/>
  <unicode hex="005A"/>
  <outline>
    <contour>
      <point x="555" y="669" type="line"/>
      <point x="524" y="686" type="line"/>
      <point x="9" y="30" type="line"/>
      <point x="38" y="9" type="line"/>
    </contour>
    <contour>
      <point x="531" y="0" type="line"/>
      <point x="531" y="30" type="line"/>
      <point x="9" y="30" type="line"/>
      <point x="9" y="0" type="line"/>
    </contour>
    <contour>
      <point x="556" y="670" type="line"/>
      <point x="556" y="700" type="line"/>
      <point x="45" y="700" type="line"/>
      <point x="45" y="670" type="line"/>
    </contour>
    <contour>
      <point x="278" y="700" type="move" name="top"/>
    </contour>
  </outline>
</glyph>
<glyph name="underscore" format="1">
  <advance width="600"/>
  <unicode hex="005F"/>
  <outline>
    <contour>
      <point x="579" y="-100" type="line"/>
      <point x="15" y="-100" type="line"/>
      <point x="15" y="-144" type="line"/>
      <point x="579" y="-144" type="line"/>
    </contour>
  </outline>
</glyph>
<glyph name="grave" format="1">
  <advance width="600"/>
  <unicode hex="0060"/>
  <outline>
    <component base="acute" xOffset="561" xScale="-1"/>
    <contour>
      <point x="285" y="482" type="move" name="_top"/>
    </contour>
  </outline>
</glyph>
<glyph name="a" format="1">
  <advance width="517"/>
  <unicode hex="0061"/>
  <outline>
    <contour>
      <point x="162" y="511"/>
      <point x="78" y="456"/>
      <point x="67" y="393" type="curve"/>
      <point x="131" y="392" type="line"/>
      <point x="143" y="437"/>
      <point x="180" y="493"/>
      <point x="265" y="493" type="curve"/>
      <point x="402" y="493"/>
      <point x="422" y="389"/>
      <point x="423" y="310" type="curve"/>
      <point x="423" y="0" type="line"/>
      <point x="467" y="0" type="line"/>
      <point x="467" y="310" type="line"/>
      <point x="467" y="399"/>
      <point x="449" y="511"/>
      <point x="265" y="511" type="curve"/>
    </contour>
    <contour>
      <point x="432" y="305"/>
      <point x="343" y="277"/>
      <point x="245" y="265" type="curve" smooth="yes"/>
      <point x="86" y="246"/>
      <point x="30" y="198"/>
      <point x="30" y="123" type="curve" smooth="yes"/>
      <point x="30" y="42"/>
      <point x="105" y="-14"/>
      <point x="224" y="-14" type="curve" smooth="yes"/>
      <point x="351" y="-14"/>
      <point x="435" y="90"/>
      <point x="435" y="199" type="curve"/>
      <point x="423" y="199" type="line"/>
      <point x="423" y="107"/>
      <point x="351" y="2"/>
      <point x="224" y="2" type="curve" smooth="yes"/>
      <point x="109" y="2"/>
      <point x="80" y="78"/>
      <point x="80" y="129" type="curve" smooth="yes"/>
      <point x="80" y="194"/>
      <point x="127" y="233"/>
      <point x="242" y="248" type="curve" smooth="yes"/>
      <point x="359" y="263"/>
      <point x="443" y="301"/>
      <point x="443" y="377" type="curve"/>
      <point x="415" y="382" type="line"/>
    </contour>
  </outline>
</glyph>
<glyph name="b" format="1">
  <advance width="583"/>
  <unicode hex="0062"/>
  <outline>
    <contour>
      <point x="148" y="513"/>
      <point x="77" y="368"/>
      <point x="77" y="252" type="curve"/>
      <point x="77" y="134"/>
      <point x="148" y="-12"/>
      <point x="304" y="-12" type="curve"/>
      <point x="456" y="-12"/>
      <point x="553" y="100"/>
      <point x="553" y="252" type="curve"/>
      <point x="553" y="403"/>
      <point x="456" y="513"/>
      <point x="304" y="513" type="curve"/>
    </contour>
    <contour>
      <point x="50" y="732" type="line"/>
      <point x="51" y="0" type="line"/>
      <point x="95" y="0" type="line"/>
      <point x="95" y="118" type="line"/>
      <point x="78" y="244" type="line"/>
      <point x="95" y="398" type="line"/>
      <point x="95" y="732" type="line"/>
    </contour>
    <contour>
      <point x="427" y="484"/>
      <point x="508" y="379"/>
      <point x="508" y="252" type="curve"/>
      <point x="508" y="123"/>
      <point x="426" y="18"/>
      <point x="304" y="18" type="curve"/>
      <point x="183" y="18"/>
      <point x="82" y="107"/>
      <point x="82" y="252" type="curve"/>
      <point x="82" y="394"/>
      <point x="183" y="484"/>
      <point x="304" y="484" type="curve"/>
    </contour>
  </outline>
</glyph>
<glyph name="c" format="1">
  <advance width="559"/>
  <unicode hex="0063"/>
  <outline>
    <contour>
      <point x="524" y="408" type="line"/>
      <point x="487" y="471"/>
      <point x="414" y="513"/>
      <point x="308" y="513" type="curve" smooth="yes"/>
      <point x="146" y="513"/>
      <point x="30" y="420"/>
      <point x="30" y="244" type="curve" smooth="yes"/>
      <point x="30" y="72"/>
      <point x="155" y="-14"/>
      <point x="300" y="-14" type="curve" smooth="yes"/>
      <point x="413" y="-14"/>
      <point x="490" y="31"/>
      <point x="529" y="112" type="curve"/>
      <point x="489" y="128" type="line"/>
      <point x="459" y="68"/>
      <point x="405" y="0"/>
      <point x="300" y="0" type="curve" smooth="yes"/>
      <point x="187" y="0"/>
      <point x="83" y="91"/>
      <point x="83" y="244" type="curve" smooth="yes"/>
      <point x="83" y="392"/>
      <point x="167" y="500"/>
      <point x="308" y="500" type="curve" smooth="yes"/>
      <point x="390" y="500"/>
      <point x="448" y="450"/>
      <point x="486" y="387" type="curve"/>
    </contour>
    <contour>
      <point x="293" y="500" type="move" name="top"/>
    </contour>
    <contour>
      <point x="280" y="-11" type="move" name="bottom"/>
    </contour>
  </outline>
</glyph>
<glyph name="d" format="1">
  <advance width="586"/>
  <unicode hex="0064"/>
  <outline>
    <contour>
      <point x="127" y="513"/>
      <point x="30" y="403"/>
      <point x="30" y="252" type="curve"/>
      <point x="30" y="100"/>
      <point x="127" y="-12"/>
      <point x="279" y="-12" type="curve"/>
      <point x="435" y="-12"/>
      <point x="506" y="134"/>
      <point x="506" y="252" type="curve"/>
      <point x="506" y="368"/>
      <point x="435" y="513"/>
      <point x="279" y="513" type="curve"/>
    </contour>
    <contour>
      <point x="400" y="484"/>
      <point x="501" y="394"/>
      <point x="501" y="252" type="curve"/>
      <point x="501" y="107"/>
      <point x="400" y="18"/>
      <point x="279" y="18" type="curve"/>
      <point x="157" y="18"/>
      <point x="75" y="123"/>
      <point x="75" y="252" type="curve"/>
      <point x="75" y="379"/>
      <point x="156" y="484"/>
      <point x="279" y="484" type="curve"/>
    </contour>
    <contour>
      <point x="491" y="732" type="line"/>
      <point x="491" y="398" type="line"/>
      <point x="504" y="244" type="line"/>
      <point x="491" y="118" type="line"/>
      <point x="491" y="0" type="line"/>
      <point x="535" y="0" type="line"/>
      <point x="536" y="732" type="line"/>
    </contour>
    <contour>
      <point x="294" y="235" type="move" name="center"/>
    </contour>
    <contour>
      <point x="597" y="525" type="move" name="topright"/>
    </contour>
  </outline>
</glyph>
<glyph name="e" format="1">
  <advance width="567"/>
  <unicode hex="0065"/>
  <outline>
    <contour>
      <point x="150" y="513"/>
      <point x="30" y="420"/>
      <point x="30" y="256" type="curve" smooth="yes"/>
      <point x="30" y="72"/>
      <point x="156" y="-14"/>
      <point x="300" y="-14" type="curve" smooth="yes"/>
      <point x="403" y="-14"/>
      <point x="477" y="19"/>
      <point x="525" y="78" type="curve"/>
      <point x="484" y="97" type="line"/>
      <point x="450" y="48"/>
      <point x="402" y="4"/>
      <point x="300" y="4" type="curve" smooth="yes"/>
      <point x="187" y="4"/>
      <point x="83" y="91"/>
      <point x="83" y="256" type="curve" smooth="yes"/>
      <point x="83" y="391"/>
      <point x="163" y="498"/>
      <point x="293" y="498" type="curve" smooth="yes"/>
      <point x="447" y="498"/>
      <point x="502.127" y="369.542"/>
      <point x="470.127" y="272.542" type="curve"/>
      <point x="70.127" y="272.542" type="line"/>
      <point x="70" y="251" type="line"/>
      <point x="524" y="251" type="line"/>
      <point x="544" y="408"/>
      <point x="453" y="513"/>
      <point x="293" y="513" type="curve"/>
    </contour>
    <contour>
      <point x="549" y="-29" type="move" name="ogonek"/>
    </contour>
    <contour>
      <point x="291" y="-40" type="move" name="bottom"/>
    </contour>
    <contour>
      <point x="291" y="541" type="move" name="top"/>
    </contour>
  </outline>
</glyph>
<glyph name="g" format="1">
  <advance width="586"/>
  <unicode hex="0067"/>
  <outline>
    <contour>
      <point x="491" y="500" type="line"/>
      <point x="491" y="382" type="line"/>
      <point x="504" y="256" type="line"/>
      <point x="491" y="102" type="line"/>
      <point x="491" y="-1" type="line"/>
      <point x="491" y="-153"/>
      <point x="399" y="-230"/>
      <point x="285" y="-230" type="curve"/>
      <point x="177" y="-230"/>
      <point x="129" y="-177"/>
      <point x="104" y="-128" type="curve"/>
      <point x="60" y="-138" type="line"/>
      <point x="91" y="-207"/>
      <point x="157" y="-259"/>
      <point x="285" y="-259" type="curve"/>
      <point x="428" y="-259"/>
      <point x="536" y="-175"/>
      <point x="536" y="-1" type="curve"/>
      <point x="535" y="500" type="line"/>
    </contour>
    <contour>
      <point x="127" y="512"/>
      <point x="30" y="400"/>
      <point x="30" y="248" type="curve"/>
      <point x="30" y="97"/>
      <point x="127" y="-14"/>
      <point x="279" y="-14" type="curve"/>
      <point x="435" y="-14"/>
      <point x="506" y="131"/>
      <point x="506" y="248" type="curve"/>
      <point x="506" y="366"/>
      <point x="435" y="512"/>
      <point x="279" y="512" type="curve"/>
    </contour>
    <contour>
      <point x="400" y="481"/>
      <point x="501" y="393"/>
      <point x="501" y="248" type="curve"/>
      <point x="501" y="105"/>
      <point x="400" y="16"/>
      <point x="279" y="16" type="curve"/>
      <point x="156" y="16"/>
      <point x="75" y="121"/>
      <point x="75" y="248" type="curve"/>
      <point x="75" y="377"/>
      <point x="157" y="481"/>
      <point x="279" y="481" type="curve"/>
    </contour>
    <contour>
      <point x="294" y="561" type="move" name="top"/>
    </contour>
  </outline>
</glyph>
<glyph name="h" format="1">
  <advance width="572"/>
  <unicode hex="0068"/>
  <outline>
    <contour>
      <point x="521" y="304" type="line"/>
      <point x="521" y="409"/>
      <point x="482" y="506.288"/>
      <point x="320" y="506.288" type="curve" smooth="yes"/>
      <point x="203" y="506.288"/>
      <point x="79" y="400"/>
      <point x="85" y="277" type="curve"/>
      <point x="94" y="277" type="line"/>
      <point x="111" y="420"/>
      <point x="218" y="481.288"/>
      <point x="307" y="481.288" type="curve" smooth="yes"/>
      <point x="432" y="481.288"/>
      <point x="477" y="398"/>
      <point x="477" y="304" type="curve"/>
      <point x="477" y="1" type="line"/>
      <point x="521" y="1" type="line"/>
    </contour>
    <contour>
      <point x="94" y="700" type="line"/>
      <point x="50" y="700" type="line"/>
      <point x="50" y="0" type="line"/>
      <point x="94" y="0" type="line"/>
    </contour>
    <contour>
      <point x="274" y="234" type="move" name="center"/>
    </contour>
    <contour>
      <point x="274" y="524" type="move" name="top"/>
    </contour>
  </outline>
</glyph>
<glyph name="j" format="1">
  <advance width="248"/>
  <unicode hex="006A"/>
  <outline>
    <contour>
      <point x="102" y="500" type="line"/>
      <point x="102" y="-70" type="line"/>
      <point x="102" y="-137"/>
      <point x="76" y="-239"/>
      <point x="-37" y="-239" type="curve" smooth="yes"/>
      <point x="-89" y="-239"/>
      <point x="-130" y="-210"/>
      <point x="-156" y="-181" type="curve"/>
      <point x="-187" y="-203" type="line"/>
      <point x="-158" y="-232"/>
      <point x="-114" y="-260"/>
      <point x="-37" y="-260" type="curve" smooth="yes"/>
      <point x="122" y="-260"/>
      <point x="146" y="-135"/>
      <point x="146" y="-70" type="curve"/>
      <point x="146" y="500" type="line"/>
    </contour>
    <contour>
      <point x="102" y="700" type="line"/>
      <point x="102" y="656" type="line"/>
      <point x="146" y="656" type="line"/>
      <point x="146" y="700" type="line"/>
    </contour>
  </outline>
</glyph>
<glyph name="k" format="1">
  <advance width="516"/>
  <unicode hex="006B"/>
  <outline>
    <contour>
      <point x="358" y="500" type="line"/>
      <point x="77" y="201" type="line"/>
      <point x="88" y="174" type="line"/>
      <point x="403" y="500" type="line"/>
    </contour>
    <contour>
      <point x="50" y="700" type="line"/>
      <point x="50" y="0" type="line"/>
      <point x="94" y="0" type="line"/>
      <point x="94" y="700" type="line"/>
    </contour>
    <contour>
      <point x="217" y="328" type="line"/>
      <point x="434" y="0" type="line"/>
      <point x="486" y="0" type="line"/>
      <point x="254" y="352" type="line"/>
    </contour>
    <contour>
      <point x="260" y="-57" type="move" name="bottom"/>
    </contour>
  </outline>
</glyph>
<glyph name="l" format="1">
  <advance width="144"/>
  <unicode hex="006C"/>
  <outline>
    <contour>
      <point x="94" y="700" type="line"/>
      <point x="50" y="700" type="line"/>
      <point x="50" y="0" type="line"/>
      <point x="94" y="0" type="line"/>
    </contour>
    <contour>
      <point x="124" y="524" type="move" name="top"/>
    </contour>
    <contour>
      <point x="124" y="-57" type="move" name="bottom"/>
    </contour>
    <contour>
      <point x="245" y="524" type="move" name="topright"/>
    </contour>
  </outline>
</glyph>
<glyph name="m" format="1">
  <advance width="976"/>
  <unicode hex="006D"/>
  <outline>
    <contour>
      <point x="514" y="304" type="line"/>
      <point x="514" y="409"/>
      <point x="474" y="510"/>
      <point x="315" y="510" type="curve" smooth="yes"/>
      <point x="192" y="510"/>
      <point x="74" y="401"/>
      <point x="81" y="277" type="curve"/>
      <point x="93" y="277" type="line"/>
      <point x="110" y="420"/>
      <point x="215" y="481"/>
      <point x="302" y="481" type="curve" smooth="yes"/>
      <point x="427" y="481"/>
      <point x="470" y="397"/>
      <point x="470" y="304" type="curve"/>
      <point x="470" y="0" type="line"/>
      <point x="514" y="0" type="line"/>
    </contour>
    <contour>
      <point x="94" y="500" type="line"/>
      <point x="50" y="500" type="line"/>
      <point x="50" y="0" type="line"/>
      <point x="94" y="0" type="line"/>
    </contour>
    <contour>
      <point x="939" y="304" type="line"/>
      <point x="939" y="409"/>
      <point x="900" y="510"/>
      <point x="738" y="510" type="curve" smooth="yes"/>
      <point x="610" y="510"/>
      <point x="503" y="400"/>
      <point x="506" y="277" type="curve"/>
      <point x="513" y="277" type="line"/>
      <point x="530" y="420"/>
      <point x="637" y="481"/>
      <point x="726" y="481" type="curve" smooth="yes"/>
      <point x="851" y="481"/>
      <point x="895" y="398"/>
      <point x="895" y="304" type="curve"/>
      <point x="895" y="0" type="line"/>
      <point x="939" y="0" type="line"/>
    </contour>
  </outline>
</glyph>
<glyph name="n" format="1">
  <advance width="571"/>
  <unicode hex="006E"/>
  <outline>
    <contour>
      <point x="521" y="304" type="line"/>
      <point x="521" y="409"/>
      <point x="482" y="507"/>
      <point x="320" y="507" type="curve" smooth="yes"/>
      <point x="203" y="507"/>
      <point x="79" y="400"/>
      <point x="85" y="277" type="curve"/>
      <point x="94" y="277" type="line"/>
      <point x="111" y="420"/>
      <point x="218" y="482"/>
      <point x="307" y="482" type="curve" smooth="yes"/>
      <point x="432" y="482"/>
      <point x="477" y="398"/>
      <point x="477" y="304" type="curve"/>
      <point x="477" y="1" type="line"/>
      <point x="521" y="1" type="line"/>
    </contour>
    <contour>
      <point x="94" y="500" type="line"/>
      <point x="50" y="500" type="line"/>
      <point x="50" y="1" type="line"/>
      <point x="94" y="1" type="line"/>
    </contour>
    <contour>
      <point x="287" y="540" type="move" name="top"/>
    </contour>
    <contour>
      <point x="287" y="-41" type="move" name="bottom"/>
    </contour>
  </outline>
</glyph>
<glyph name="o" format="1">
  <advance width="577.097"/>
  <unicode hex="006F"/>
  <outline>
    <contour>
      <point x="443.047" y="-14"/>
      <point x="547.097" y="98"/>
      <point x="547.097" y="247" type="curve" smooth="yes"/>
      <point x="547.097" y="397"/>
      <point x="441.996" y="512"/>
      <point x="288.548" y="512" type="curve" smooth="yes"/>
      <point x="135.101" y="512"/>
      <point x="30" y="397"/>
      <point x="30" y="247" type="curve" smooth="yes"/>
      <point x="30" y="98"/>
      <point x="134.050" y="-14"/>
      <point x="288.548" y="-14" type="curve" smooth="yes"/>
    </contour>
    <contour>
      <point x="160.325" y="-2"/>
      <point x="80.602" y="113"/>
      <point x="80.602" y="247" type="curve" smooth="yes"/>
      <point x="80.602" y="382"/>
      <point x="160.325" y="498"/>
      <point x="288.548" y="498" type="curve" smooth="yes"/>
      <point x="416.772" y="498"/>
      <point x="496.495" y="382"/>
      <point x="496.495" y="247" type="curve" smooth="yes"/>
      <point x="496.495" y="113"/>
      <point x="416.772" y="-2"/>
      <point x="288.548" y="-2" type="curve" smooth="yes"/>
    </contour>
    <contour>
      <point x="276" y="541" type="move" name="top"/>
    </contour>
  </outline>
</glyph>
<glyph name="p" format="1">
  <advance width="587"/>
  <unicode hex="0070"/>
  <outline>
    <contour>
      <point x="152" y="512"/>
      <point x="81" y="366"/>
      <point x="81" y="248" type="curve"/>
      <point x="81" y="132"/>
      <point x="152" y="-13"/>
      <point x="308" y="-13" type="curve"/>
      <point x="460" y="-13"/>
      <point x="557" y="97"/>
      <point x="557" y="248" type="curve"/>
      <point x="557" y="400"/>
      <point x="460" y="512"/>
      <point x="308" y="512" type="curve"/>
    </contour>
    <contour>
      <point x="51" y="500" type="line"/>
      <point x="50" y="-200" type="line"/>
      <point x="95" y="-200" type="line"/>
      <point x="95" y="102" type="line"/>
      <point x="82" y="256" type="line"/>
      <point x="95" y="382" type="line"/>
      <point x="95" y="500" type="line"/>
    </contour>
    <contour>
      <point x="430" y="482"/>
      <point x="512" y="377"/>
      <point x="512" y="248" type="curve"/>
      <point x="512" y="121"/>
      <point x="431" y="16"/>
      <point x="308" y="16" type="curve"/>
      <point x="187" y="16"/>
      <point x="86" y="106"/>
      <point x="86" y="248" type="curve"/>
      <point x="86" y="393"/>
      <point x="187" y="482"/>
      <point x="308" y="482" type="curve"/>
    </contour>
  </outline>
</glyph>
<glyph name="q" format="1">
  <advance width="587"/>
  <unicode hex="0071"/>
  <outline>
    <contour>
      <point x="127" y="512"/>
      <point x="30" y="400"/>
      <point x="30" y="248" type="curve"/>
      <point x="30" y="97"/>
      <point x="127" y="-13"/>
      <point x="279" y="-13" type="curve"/>
      <point x="435" y="-13"/>
      <point x="506" y="132"/>
      <point x="506" y="248" type="curve"/>
      <point x="506" y="366"/>
      <point x="435" y="512"/>
      <point x="279" y="512" type="curve"/>
    </contour>
    <contour>
      <point x="400" y="482"/>
      <point x="501" y="393"/>
      <point x="501" y="248" type="curve"/>
      <point x="501" y="106"/>
      <point x="400" y="16"/>
      <point x="279" y="16" type="curve"/>
      <point x="156" y="16"/>
      <point x="75" y="121"/>
      <point x="75" y="248" type="curve"/>
      <point x="75" y="377"/>
      <point x="157" y="482"/>
      <point x="279" y="482" type="curve"/>
    </contour>
    <contour>
      <point x="492" y="500" type="line"/>
      <point x="492" y="382" type="line"/>
      <point x="505" y="256" type="line"/>
      <point x="492" y="102" type="line"/>
      <point x="492" y="-232" type="line"/>
      <point x="537" y="-232" type="line"/>
      <point x="536" y="500" type="line"/>
    </contour>
  </outline>
</glyph>
<glyph name="r" format="1">
  <advance width="459.961"/>
  <unicode hex="0072"/>
  <outline>
    <contour>
      <point x="189.744" y="506.288"/>
      <point x="80.375" y="395.288"/>
      <point x="89" y="270.288" type="curve"/>
      <point x="93.953" y="270.288" type="line"/>
      <point x="108.030" y="412.288"/>
      <point x="197.324" y="477.288"/>
      <point x="286.118" y="477.288" type="curve"/>
      <point x="356.504" y="477.288"/>
      <point x="391.155" y="439.288"/>
      <point x="404.149" y="387.288" type="curve"/>
      <point x="453.961" y="387.288" type="line"/>
      <point x="445.298" y="455.288"/>
      <point x="409.564" y="506.288"/>
      <point x="300.195" y="506.288" type="curve"/>
    </contour>
    <contour>
      <point x="50" y="500" type="line"/>
      <point x="50" y="0" type="line"/>
      <point x="94" y="0" type="line"/>
      <point x="94" y="500" type="line"/>
    </contour>
    <contour>
      <point x="219" y="540" type="move" name="top"/>
    </contour>
    <contour>
      <point x="219" y="-41" type="move" name="bottom"/>
    </contour>
  </outline>
</glyph>
<glyph name="s" format="1">
  <advance width="441"/>
  <unicode hex="0073"/>
  <outline>
    <contour>
      <point x="131.683" y="4"/>
      <point x="67.615" y="59"/>
      <point x="46.627" y="157" type="curve"/>
      <point x="6.860" y="130" type="line"/>
      <point x="38.894" y="43"/>
      <point x="106.276" y="-14"/>
      <point x="224.471" y="-14" type="curve" smooth="yes"/>
      <point x="365.862" y="-14"/>
      <point x="428.140" y="57"/>
      <point x="428.140" y="133" type="curve" smooth="yes"/>
      <point x="428.140" y="227"/>
      <point x="305.108" y="255"/>
      <point x="226.680" y="276" type="curve" smooth="yes"/>
      <point x="132.787" y="301"/>
      <point x="87.498" y="342"/>
      <point x="87.498" y="395" type="curve" smooth="yes"/>
      <point x="87.498" y="453"/>
      <point x="142.729" y="496"/>
      <point x="222.262" y="496" type="curve" smooth="yes"/>
      <point x="268.656" y="496"/>
      <point x="331.619" y="491"/>
      <point x="350.398" y="401" type="curve"/>
      <point x="403.420" y="413" type="line"/>
      <point x="373.595" y="490"/>
      <point x="290.748" y="513"/>
      <point x="222.262" y="513" type="curve" smooth="yes"/>
      <point x="122.846" y="513"/>
      <point x="49.941" y="465"/>
      <point x="49.941" y="395" type="curve" smooth="yes"/>
      <point x="49.941" y="320"/>
      <point x="117.322" y="283"/>
      <point x="214.529" y="257" type="curve" smooth="yes"/>
      <point x="308.422" y="231"/>
      <point x="388.164" y="209"/>
      <point x="388.164" y="135" type="curve" smooth="yes"/>
      <point x="388.164" y="60"/>
      <point x="320.573" y="4"/>
      <point x="224.471" y="4" type="curve" smooth="yes"/>
    </contour>
    <contour>
      <point x="222.262" y="513" type="move" name="top"/>
    </contour>
    <contour>
      <point x="232" y="-40" type="move" name="bottom"/>
    </contour>
  </outline>
</glyph>
<glyph name="t" format="1">
  <advance width="459"/>
  <unicode hex="0074"/>
  <outline>
    <contour>
      <point x="404" y="74" type="line"/>
      <point x="383" y="43"/>
      <point x="348" y="10"/>
      <point x="292" y="10" type="curve"/>
      <point x="212" y="10"/>
      <point x="165" y="69"/>
      <point x="165" y="144" type="curve"/>
      <point x="165" y="734" type="line"/>
      <point x="121" y="734" type="line"/>
      <point x="121" y="141" type="line"/>
      <point x="121" y="52"/>
      <point x="161" y="-12"/>
      <point x="292" y="-12" type="curve"/>
      <point x="358" y="-12"/>
      <point x="399" y="16"/>
      <point x="429" y="59" type="curve"/>
    </contour>
    <contour>
      <point x="342" y="502" type="line"/>
      <point x="16" y="502" type="line"/>
      <point x="16" y="467" type="line"/>
      <point x="342" y="467" type="line"/>
    </contour>
    <contour>
      <point x="231" y="235" type="move" name="center"/>
    </contour>
    <contour>
      <point x="231" y="-56" type="move" name="bottom"/>
    </contour>
    <contour>
      <point x="474" y="525" type="move" name="topright"/>
    </contour>
  </outline>
</glyph>
<glyph name="u" format="1">
  <advance width="570"/>
  <unicode hex="0075"/>
  <outline>
    <contour>
      <point x="50" y="197" type="line"/>
      <point x="50" y="92"/>
      <point x="89" y="-7"/>
      <point x="251" y="-7" type="curve"/>
      <point x="375" y="-7"/>
      <point x="495" y="72"/>
      <point x="482" y="224" type="curve"/>
      <point x="476" y="224" type="line"/>
      <point x="461" y="55"/>
      <point x="350" y="18"/>
      <point x="264" y="18" type="curve"/>
      <point x="139" y="18"/>
      <point x="94" y="103"/>
      <point x="94" y="197" type="curve"/>
      <point x="94" y="500" type="line"/>
      <point x="50" y="500" type="line"/>
    </contour>
    <contour>
      <point x="476" y="1" type="line"/>
      <point x="520" y="1" type="line"/>
      <point x="520" y="500" type="line"/>
      <point x="476" y="500" type="line"/>
    </contour>
    <contour>
      <point x="544" y="-28" type="move" name="ogonek"/>
    </contour>
    <contour>
      <point x="286" y="541" type="move" name="top"/>
    </contour>
  </outline>
</glyph>
<glyph name="v" format="1">
  <advance width="500"/>
  <unicode hex="0076"/>
  <outline>
    <contour>
      <point x="262" y="0" type="line"/>
      <point x="222" y="0" type="line"/>
      <point x="11" y="500" type="line"/>
      <point x="51" y="500" type="line"/>
    </contour>
    <contour>
      <point x="278" y="0" type="line"/>
      <point x="238" y="0" type="line"/>
      <point x="449" y="500" type="line"/>
      <point x="489" y="500" type="line"/>
    </contour>
  </outline>
</glyph>
<glyph name="w" format="1">
  <advance width="646"/>
  <unicode hex="0077"/>
  <outline>
    <contour>
      <point x="50" y="500" type="line"/>
      <point x="183" y="0" type="line"/>
      <point x="153" y="0" type="line"/>
      <point x="10" y="500" type="line"/>
    </contour>
    <contour>
      <point x="346" y="500" type="line"/>
      <point x="479" y="0" type="line"/>
      <point x="450" y="0" type="line"/>
      <point x="323" y="472" type="line"/>
      <point x="196" y="0" type="line"/>
      <point x="167" y="0" type="line"/>
      <point x="300" y="500" type="line"/>
    </contour>
    <contour>
      <point x="636" y="500" type="line"/>
      <point x="493" y="0" type="line"/>
      <point x="463" y="0" type="line"/>
      <point x="596" y="500" type="line"/>
    </contour>
    <contour>
      <point x="323.272" y="500" type="move" name="top"/>
    </contour>
  </outline>
</glyph>
<glyph name="x" format="1">
  <advance width="558"/>
  <unicode hex="0078"/>
  <outline>
    <contour>
      <point x="481" y="500" type="line"/>
      <point x="274.702" y="273.824" type="line"/>
      <point x="251.702" y="254.824" type="line"/>
      <point x="20" y="0" type="line"/>
      <point x="77" y="0" type="line"/>
      <point x="277.702" y="215.824" type="line"/>
      <point x="303.702" y="237.824" type="line"/>
      <point x="538" y="500" type="line"/>
    </contour>
    <contour>
      <point x="522" y="0" type="line"/>
      <point x="76" y="500" type="line"/>
      <point x="22" y="500" type="line"/>
      <point x="466" y="0" type="line"/>
    </contour>
  </outline>
</glyph>
<glyph name="y" format="1">
  <advance width="532"/>
  <unicode hex="0079"/>
  <outline>
    <contour>
      <point x="452" y="500" type="line"/>
      <point x="166" y="-200" type="line"/>
      <point x="210" y="-200" type="line"/>
      <point x="495" y="500" type="line"/>
    </contour>
    <contour>
      <point x="47" y="500" type="line"/>
      <point x="271" y="55" type="line"/>
      <point x="314" y="63" type="line"/>
      <point x="100" y="500" type="line"/>
    </contour>
    <contour>
      <point x="265" y="557" type="move" name="top"/>
    </contour>
  </outline>
</glyph>
<glyph name="z" format="1">
  <advance width="489"/>
  <unicode hex="007A"/>
  <outline>
    <contour>
      <point x="478" y="484" type="line"/>
      <point x="456" y="500" type="line"/>
      <point x="3" y="35" type="line"/>
      <point x="8" y="0" type="line"/>
      <point x="14" y="0" type="line"/>
      <point x="483" y="465" type="line"/>
    </contour>
    <contour>
      <point x="466" y="35" type="line"/>
      <point x="3" y="35" type="line"/>
      <point x="3" y="0" type="line"/>
      <point x="466" y="0" type="line"/>
    </contour>
    <contour>
      <point x="483" y="500" type="line"/>
      <point x="43" y="500" type="line"/>
      <point x="43" y="465" type="line"/>
      <point x="483" y="465" type="line"/>
    </contour>
    <contour>
      <point x="246" y="541" type="move" name="top"/>
    </contour>
  </outline>
</glyph>
<glyph name="asciitilde" format="1">
  <advance width="600"/>
  <unicode hex="007E"/>
  <outline>
    <contour>
      <point x="501" y="365" type="line"/>
      <point x="518" y="320"/>
      <point x="493" y="256"/>
      <point x="422" y="256" type="curve" smooth="yes"/>
      <point x="369" y="256"/>
      <point x="307" y="316"/>
      <point x="274" y="340" type="curve" smooth="yes"/>
      <point x="235" y="367"/>
      <point x="208" y="384"/>
      <point x="163" y="384" type="curve" smooth="yes"/>
      <point x="67" y="384"/>
      <point x="38" y="295"/>
      <point x="61" y="253" type="curve"/>
      <point x="102" y="253" type="line"/>
      <point x="82" y="298"/>
      <point x="101" y="365"/>
      <point x="172" y="365" type="curve" smooth="yes"/>
      <point x="225" y="365"/>
      <point x="283" y="308"/>
      <point x="321" y="282" type="curve" smooth="yes"/>
      <point x="357" y="256"/>
      <point x="390" y="237"/>
      <point x="431" y="237" type="curve" smooth="yes"/>
      <point x="527" y="237"/>
      <point x="564" y="323"/>
      <point x="542" y="365" type="curve"/>
    </contour>
  </outline>
</glyph>
<glyph name="cent" format="1">
  <advance width="549"/>
  <unicode hex="00A2"/>
  <outline>
    <contour>
      <point x="307" y="699" type="line"/>
      <point x="267" y="699" type="line"/>
      <point x="267" y="4" type="line"/>
      <point x="307" y="4" type="line"/>
    </contour>
    <component base="c" yOffset="97"/>
    <contour>
      <point x="276" y="516" type="move" name="top"/>
    </contour>
    <contour>
      <point x="276" y="-39" type="move" name="bottom"/>
    </contour>
  </outline>
</glyph>
<glyph name="sterling" format="1">
  <advance width="581"/>
  <unicode hex="00A3"/>
  <outline>
    <contour>
      <point x="217" y="724"/>
      <point x="193" y="606"/>
      <point x="193" y="544" type="curve"/>
      <point x="193" y="224" type="line"/>
      <point x="193" y="127"/>
      <point x="157" y="58"/>
      <point x="86" y="41" type="curve" smooth="yes"/>
      <point x="86" y="31" type="line" smooth="yes"/>
      <point x="194" y="48"/>
      <point x="235" y="143"/>
      <point x="235" y="224" type="curve"/>
      <point x="235" y="544" type="line"/>
      <point x="235" y="608"/>
      <point x="260" y="704"/>
      <point x="369" y="704" type="curve"/>
      <point x="418" y="704"/>
      <point x="457" y="678"/>
      <point x="482" y="650" type="curve"/>
      <point x="512" y="671" type="line"/>
      <point x="484" y="699"/>
      <point x="442" y="724"/>
      <point x="369" y="724" type="curve"/>
    </contour>
    <contour>
      <point x="86" y="41" type="line"/>
      <point x="86" y="-1" type="line"/>
      <point x="538" y="-1" type="line"/>
      <point x="538" y="41" type="line"/>
    </contour>
    <contour>
      <point x="103" y="388" type="line"/>
      <point x="103" y="354" type="line"/>
      <point x="359" y="354" type="line"/>
      <point x="359" y="388" type="line"/>
    </contour>
    <contour>
      <point x="289" y="737" type="move" name="top"/>
    </contour>
    <contour>
      <point x="289" y="-40" type="move" name="bottom"/>
    </contour>
    <contour>
      <point x="589" y="737" type="move" name="topright"/>
    </contour>
  </outline>
</glyph>
<glyph name="currency" format="1">
  <advance width="600"/>
  <unicode hex="00A4"/>
  <outline>
    <contour>
      <point x="505.240" y="121.949" type="line"/>
      <point x="544.142" y="161.928" type="line"/>
      <point x="475.800" y="229.927" type="line"/>
      <point x="436.898" y="189.949" type="line"/>
    </contour>
    <contour>
      <point x="77.534" y="161.899" type="line"/>
      <point x="116.273" y="121.834" type="line"/>
      <point x="190.802" y="197.921" type="line"/>
      <point x="152.062" y="237.985" type="line"/>
    </contour>
    <contour>
      <point x="437.304" y="133.587"/>
      <point x="534.238" y="230.521"/>
      <point x="534.238" y="346.507" type="curve"/>
      <point x="534.238" y="462.493"/>
      <point x="437.304" y="559.427"/>
      <point x="313.318" y="559.427" type="curve"/>
      <point x="189.333" y="559.427"/>
      <point x="92.398" y="462.493"/>
      <point x="92.398" y="346.507" type="curve"/>
      <point x="92.398" y="236.153"/>
      <point x="180.235" y="133.587"/>
      <point x="313.318" y="133.587" type="curve"/>
    </contour>
    <contour>
      <point x="208.224" y="160.273"/>
      <point x="135.834" y="243.970"/>
      <point x="135.834" y="346.507" type="curve"/>
      <point x="135.834" y="451.550"/>
      <point x="217.020" y="532.741"/>
      <point x="313.318" y="532.741" type="curve"/>
      <point x="409.617" y="532.741"/>
      <point x="490.803" y="451.550"/>
      <point x="490.803" y="346.507" type="curve"/>
      <point x="490.803" y="241.464"/>
      <point x="409.617" y="160.273"/>
      <point x="313.318" y="160.273" type="curve"/>
    </contour>
    <contour>
      <point x="428.268" y="505.891" type="line"/>
      <point x="467.073" y="465.861" type="line"/>
      <point x="544.074" y="538.273" type="line"/>
      <point x="505.268" y="578.302" type="line"/>
    </contour>
    <contour>
      <point x="149.590" y="468.026" type="line"/>
      <point x="188.492" y="508.005" type="line"/>
      <point x="116.320" y="578.234" type="line"/>
      <point x="77.418" y="538.256" type="line"/>
    </contour>
  </outline>
</glyph>
<glyph name="section" format="1">
  <advance width="572"/>
  <unicode hex="00A7"/>
  <outline>
    <contour>
      <point x="107" y="425"/>
      <point x="90" y="388"/>
      <point x="90" y="346" type="curve"/>
      <point x="90" y="265"/>
      <point x="158" y="201"/>
      <point x="295" y="160" type="curve"/>
      <point x="387" y="132"/>
      <point x="506" y="101"/>
      <point x="506" y="-8" type="curve"/>
      <point x="506" y="-103"/>
      <point x="444" y="-178"/>
      <point x="307" y="-178" type="curve"/>
      <point x="172" y="-178"/>
      <point x="103" y="-115"/>
      <point x="72" y="-26" type="curve"/>
      <point x="33" y="-45" type="line"/>
      <point x="76" y="-141"/>
      <point x="158" y="-205"/>
      <point x="307" y="-205" type="curve"/>
      <point x="479" y="-205"/>
      <point x="552" y="-115"/>
      <point x="552" y="-8" type="curve"/>
      <point x="552" y="119"/>
      <point x="403" y="158"/>
      <point x="308" y="187" type="curve"/>
      <point x="191" y="222"/>
      <point x="134" y="274"/>
      <point x="134" y="346" type="curve" smooth="yes"/>
      <point x="134" y="379"/>
      <point x="145" y="407"/>
      <point x="165" y="430" type="curve"/>
      <point x="139" y="454" type="line"/>
    </contour>
    <contour>
      <point x="173" y="710"/>
      <point x="84" y="638"/>
      <point x="84" y="546" type="curve"/>
      <point x="84" y="464"/>
      <point x="153" y="401"/>
      <point x="290" y="360" type="curve"/>
      <point x="381" y="331"/>
      <point x="501" y="301"/>
      <point x="501" y="192" type="curve"/>
      <point x="501" y="165"/>
      <point x="495" y="135"/>
      <point x="482" y="110" type="curve"/>
      <point x="513" y="81" type="line"/>
      <point x="535" y="112"/>
      <point x="546" y="151"/>
      <point x="546" y="192" type="curve"/>
      <point x="546" y="319"/>
      <point x="398" y="358"/>
      <point x="303" y="387" type="curve"/>
      <point x="186" y="422"/>
      <point x="129" y="474"/>
      <point x="129" y="546" type="curve"/>
      <point x="129" y="625"/>
      <point x="200" y="685"/>
      <point x="296" y="685" type="curve"/>
      <point x="375" y="685"/>
      <point x="434" y="653"/>
      <point x="455" y="595" type="curve"/>
      <point x="497" y="606" type="line"/>
      <point x="469" y="675"/>
      <point x="390" y="710"/>
      <point x="296" y="710" type="curve"/>
    </contour>
  </outline>
</glyph>
<glyph name="dieresis" format="1">
  <advance width="556"/>
  <unicode hex="00A8"/>
  <outline>
    <component base="dotaccent" xOffset="278" yOffset="-10"/>
    <component base="dotaccent" xOffset="30" yOffset="-10"/>
    <contour>
      <point x="278" y="484" type="move" name="_top"/>
    </contour>
  </outline>
</glyph>
<glyph name="copyright" format="1">
  <advance width="808"/>
  <unicode hex="00A9"/>
  <outline>
    <contour>
      <point x="638" y="-9"/>
      <point x="791" y="164"/>
      <point x="791" y="383" type="curve"/>
      <point x="791" y="603"/>
      <point x="638" y="779"/>
      <point x="404" y="779" type="curve"/>
      <point x="170" y="779"/>
      <point x="17" y="603"/>
      <point x="17" y="383" type="curve"/>
      <point x="17" y="164"/>
      <point x="171" y="-9"/>
      <point x="404" y="-9" type="curve"/>
    </contour>
    <contour>
      <point x="186" y="1"/>
      <point x="41" y="165"/>
      <point x="41" y="383" type="curve"/>
      <point x="41" y="603"/>
      <point x="187" y="769"/>
      <point x="404" y="769" type="curve"/>
      <point x="623" y="769"/>
      <point x="767" y="603"/>
      <point x="767" y="383" type="curve"/>
      <point x="767" y="165"/>
      <point x="622" y="1"/>
      <point x="404" y="1" type="curve"/>
    </contour>
    <component base="c" xOffset="191" yOffset="203" xScale="0.751" yScale="0.751"/>
  </outline>
</glyph>
<glyph name="macron" format="1">
  <advance width="600"/>
  <unicode hex="00AF"/>
  <outline>
    <contour>
      <point x="563" y="715" type="line"/>
      <point x="47" y="715" type="line"/>
      <point x="47" y="673" type="line"/>
      <point x="563" y="673" type="line"/>
    </contour>
    <contour>
      <point x="305" y="476" type="move" name="_top"/>
    </contour>
  </outline>
</glyph>
<glyph name="degree" format="1">
  <advance width="600"/>
  <unicode hex="00B0"/>
  <outline>
    <contour>
      <point x="203" y="798"/>
      <point x="135" y="730"/>
      <point x="135" y="644" type="curve"/>
      <point x="135" y="557"/>
      <point x="203" y="489"/>
      <point x="290" y="489" type="curve"/>
      <point x="376" y="489"/>
      <point x="444" y="557"/>
      <point x="444" y="644" type="curve"/>
      <point x="444" y="730"/>
      <point x="376" y="798"/>
      <point x="290" y="798" type="curve"/>
    </contour>
    <contour>
      <point x="356" y="764"/>
      <point x="410" y="710"/>
      <point x="410" y="644" type="curve"/>
      <point x="410" y="577"/>
      <point x="356" y="523"/>
      <point x="290" y="523" type="curve"/>
      <point x="223" y="523"/>
      <point x="169" y="577"/>
      <point x="169" y="644" type="curve"/>
      <point x="169" y="710"/>
      <point x="223" y="764"/>
      <point x="290" y="764" type="curve"/>
    </contour>
  </outline>
</glyph>
<glyph name="acute" format="1">
  <advance width="600"/>
  <unicode hex="00B4"/>
  <outline>
    <contour>
      <point x="219" y="602" type="line"/>
      <point x="236" y="597" type="line"/>
      <point x="362" y="676" type="line"/>
      <point x="339" y="715" type="line"/>
    </contour>
    <contour>
      <point x="280" y="482" type="move" name="_top"/>
    </contour>
  </outline>
</glyph>
<glyph name="paragraph" format="1">
  <advance width="691"/>
  <unicode hex="00B6"/>
  <outline>
    <contour>
      <point x="282" y="701" type="line" smooth="yes"/>
      <point x="203" y="701"/>
      <point x="121" y="665"/>
      <point x="121" y="559" type="curve" smooth="yes"/>
      <point x="121" y="450"/>
      <point x="199" y="416"/>
      <point x="288" y="416" type="curve" smooth="yes"/>
      <point x="409" y="416" type="line"/>
      <point x="409" y="-201" type="line"/>
      <point x="430" y="-201" type="line"/>
      <point x="430" y="701" type="line"/>
    </contour>
    <contour>
      <point x="600" y="701" type="line"/>
      <point x="600" y="-201" type="line"/>
      <point x="622" y="-201" type="line"/>
      <point x="622" y="701" type="line"/>
    </contour>
  </outline>
</glyph>
<glyph name="cedilla" format="1">
  <advance width="600"/>
  <unicode hex="00B8"/>
  <outline>
    <contour>
      <point x="293" y="-33"/>
      <point x="268" y="-46"/>
      <point x="252" y="-59" type="curve"/>
      <point x="263" y="-67" type="line"/>
      <point x="274" y="-58"/>
      <point x="291" y="-50"/>
      <point x="311" y="-50" type="curve" smooth="yes"/>
      <point x="339" y="-50"/>
      <point x="358" y="-74"/>
      <point x="352" y="-103" type="curve" smooth="yes"/>
      <point x="344" y="-140"/>
      <point x="301" y="-161"/>
      <point x="266" y="-161" type="curve" smooth="yes"/>
      <point x="250" y="-161"/>
      <point x="226" y="-156"/>
      <point x="209" y="-150" type="curve"/>
      <point x="209" y="-178" type="line"/>
      <point x="221" y="-181"/>
      <point x="242" y="-185"/>
      <point x="260" y="-185" type="curve" smooth="yes"/>
      <point x="311" y="-185"/>
      <point x="369" y="-162"/>
      <point x="381" y="-106" type="curve" smooth="yes"/>
      <point x="389" y="-70"/>
      <point x="370" y="-33"/>
      <point x="314" y="-33" type="curve" smooth="yes"/>
    </contour>
    <contour>
      <point x="266" y="0" type="line"/>
      <point x="236" y="-67" type="line"/>
      <point x="264" y="-67" type="line"/>
      <point x="294" y="0" type="line"/>
    </contour>
    <contour>
      <point x="282" y="0" type="move" name="_bottom"/>
    </contour>
  </outline>
</glyph>
<glyph name="onequarter" format="1">
  <advance width="851"/>
  <unicode hex="00BC"/>
  <outline>
    <contour>
      <point x="667" y="754" type="line"/>
      <point x="85" y="0" type="line"/>
      <point x="118" y="0" type="line"/>
      <point x="699" y="754" type="line"/>
    </contour>
    <contour>
      <point x="450" y="125" type="line"/>
      <point x="449" y="99" type="line"/>
      <point x="814" y="99" type="line"/>
      <point x="814" y="124" type="line"/>
      <point x="488" y="124" type="line"/>
      <point x="726" y="414" type="line"/>
      <point x="702" y="428" type="line"/>
    </contour>
    <contour>
      <point x="702" y="428" type="line"/>
      <point x="697" y="409" type="line"/>
      <point x="697" y="0" type="line"/>
      <point x="736" y="0" type="line"/>
      <point x="736" y="428" type="line"/>
    </contour>
    <component base="onesuperior"/>
  </outline>
</glyph>
<glyph name="onehalf" format="1">
  <advance width="882"/>
  <unicode hex="00BD"/>
  <outline>
    <contour>
      <point x="83" y="-9" type="line"/>
      <point x="116" y="-9" type="line"/>
      <point x="698" y="745" type="line"/>
      <point x="665" y="745" type="line"/>
    </contour>
    <component base="onesuperior"/>
    <component base="twosuperior" xOffset="419" yOffset="-409"/>
  </outline>
</glyph>
<glyph name="AE" format="1">
  <advance width="1070"/>
  <unicode hex="00C6"/>
  <outline>
    <contour>
      <point x="512" y="700" type="line"/>
      <point x="462" y="700" type="line"/>
      <point x="64" y="0" type="line"/>
      <point x="117" y="0" type="line"/>
    </contour>
    <contour>
      <point x="527" y="258" type="line"/>
      <point x="527" y="285" type="line"/>
      <point x="231" y="285" type="line"/>
      <point x="220" y="258" type="line"/>
    </contour>
    <component base="E" xOffset="437"/>
    <contour>
      <point x="706" y="-27" type="move" name="ogonek"/>
    </contour>
    <contour>
      <point x="376" y="738" type="move" name="top"/>
    </contour>
  </outline>
</glyph>
<glyph name="multiply" format="1">
  <advance width="600"/>
  <unicode hex="00D7"/>
  <outline>
    <contour>
      <point x="54" y="515" type="line"/>
      <point x="541" y="29" type="line"/>
      <point x="565" y="52" type="line"/>
      <point x="77" y="539" type="line"/>
    </contour>
    <contour>
      <point x="79" y="29" type="line"/>
      <point x="565" y="516" type="line"/>
      <point x="542" y="540" type="line"/>
      <point x="55" y="52" type="line"/>
    </contour>
  </outline>
</glyph>
<glyph name="ae" format="1">
  <advance width="981"/>
  <unicode hex="00E6"/>
  <outline>
    <component base="a"/>
    <component base="e" xOffset="394"/>
    <contour>
      <point x="553" y="541" type="move" name="top"/>
    </contour>
  </outline>
</glyph>
<glyph name="eth" format="1">
  <advance width="573"/>
  <unicode hex="00F0"/>
  <outline>
    <contour>
      <point x="78" y="764" type="line"/>
      <point x="382" y="708"/>
      <point x="515" y="518"/>
      <point x="515" y="285" type="curve"/>
      <point x="515" y="239"/>
      <point x="509" y="183"/>
      <point x="495" y="119" type="curve"/>
      <point x="501" y="120" type="line"/>
      <point x="518" y="151"/>
      <point x="541" y="196"/>
      <point x="541" y="196" type="curve"/>
      <point x="550" y="237"/>
      <point x="553" y="274"/>
      <point x="553" y="312" type="curve"/>
      <point x="553" y="573"/>
      <point x="367" y="757"/>
      <point x="78" y="800" type="curve"/>
    </contour>
    <contour>
      <point x="277" y="491"/>
      <point x="269" y="491"/>
      <point x="261" y="490" type="curve"/>
      <point x="122" y="475"/>
      <point x="38" y="371"/>
      <point x="38" y="236" type="curve"/>
      <point x="38" y="227"/>
      <point x="39" y="216"/>
      <point x="40" y="203" type="curve"/>
      <point x="56" y="61"/>
      <point x="149" y="-34"/>
      <point x="284" y="-34" type="curve"/>
      <point x="294" y="-34"/>
      <point x="304" y="-33"/>
      <point x="315" y="-32" type="curve"/>
      <point x="466" y="-16"/>
      <point x="544" y="126"/>
      <point x="544" y="235" type="curve"/>
      <point x="544" y="336"/>
      <point x="443" y="491"/>
      <point x="287" y="491" type="curve"/>
    </contour>
    <contour>
      <point x="408" y="462"/>
      <point x="510" y="372"/>
      <point x="510" y="221" type="curve"/>
      <point x="510" y="95"/>
      <point x="425" y="9"/>
      <point x="313" y="-3" type="curve"/>
      <point x="304" y="-4"/>
      <point x="296" y="-4"/>
      <point x="289" y="-4" type="curve"/>
      <point x="170" y="-4"/>
      <point x="85" y="104"/>
      <point x="85" y="241" type="curve"/>
      <point x="85" y="352"/>
      <point x="151" y="449"/>
      <point x="263" y="460" type="curve"/>
      <point x="273" y="462"/>
      <point x="284" y="462"/>
      <point x="290" y="462" type="curve"/>
    </contour>
    <contour>
      <point x="150" y="678" type="line"/>
      <point x="169" y="659" type="line"/>
      <point x="327" y="796" type="line"/>
      <point x="308" y="815" type="line"/>
    </contour>
  </outline>
</glyph>
<glyph name="divide" format="1">
  <advance width="600"/>
  <unicode hex="00F7"/>
  <outline>
    <contour>
      <point x="531" y="246" type="line"/>
      <point x="64" y="246" type="line"/>
      <point x="64" y="213" type="line"/>
      <point x="531" y="213" type="line"/>
    </contour>
    <component base="colon" xOffset="163"/>
  </outline>
</glyph>
<glyph name="oslash" format="1">
  <advance width="577.097"/>
  <unicode hex="00F8"/>
  <outline>
    <component base="o"/>
    <component base="slash" xOffset="68" yOffset="-37"/>
    <contour>
      <point x="267" y="538" type="move" name="top"/>
    </contour>
  </outline>
</glyph>
<glyph name="thorn" format="1">
  <advance width="563"/>
  <unicode hex="00FE"/>
  <outline>
    <contour>
      <point x="138" y="506"/>
      <point x="67" y="360"/>
      <point x="67" y="242" type="curve"/>
      <point x="67" y="126"/>
      <point x="138" y="-19"/>
      <point x="294" y="-19" type="curve"/>
      <point x="446" y="-19"/>
      <point x="543" y="91"/>
      <point x="543" y="242" type="curve"/>
      <point x="543" y="394"/>
      <point x="446" y="506"/>
      <point x="294" y="506" type="curve"/>
    </contour>
    <contour>
      <point x="37" y="808" type="line"/>
      <point x="36" y="-238" type="line"/>
      <point x="81" y="-238" type="line"/>
      <point x="81" y="96" type="line"/>
      <point x="68" y="250" type="line"/>
      <point x="81" y="376" type="line"/>
      <point x="81" y="808" type="line"/>
    </contour>
    <contour>
      <point x="416" y="476"/>
      <point x="498" y="371"/>
      <point x="498" y="242" type="curve"/>
      <point x="498" y="115"/>
      <point x="417" y="10"/>
      <point x="294" y="10" type="curve"/>
      <point x="173" y="10"/>
      <point x="72" y="100"/>
      <point x="72" y="242" type="curve"/>
      <point x="72" y="387"/>
      <point x="173" y="476"/>
      <point x="294" y="476" type="curve"/>
    </contour>
  </outline>
</glyph>
<glyph name="dotlessi" format="1">
  <advance width="248"/>
  <unicode hex="0131"/>
  <outline>
    <contour>
      <point x="146" y="500" type="line"/>
      <point x="102" y="500" type="line"/>
      <point x="102" y="0" type="line"/>
      <point x="146" y="0" type="line"/>
    </contour>
    <contour>
      <point x="239" y="-29" type="move" name="ogonek"/>
    </contour>
    <contour>
      <point x="124" y="541" type="move" name="top"/>
    </contour>
  </outline>
</glyph>
<glyph name="Lslash" format="1">
  <advance width="697"/>
  <unicode hex="0141"/>
  <outline>
    <contour>
      <point x="344" y="429" type="line"/>
      <point x="344" y="465" type="line"/>
      <point x="54" y="382" type="line"/>
      <point x="54" y="346" type="line"/>
    </contour>
    <component base="L" xOffset="115"/>
  </outline>
</glyph>
<glyph name="lslash" format="1">
  <advance width="472"/>
  <unicode hex="0142"/>
  <outline>
    <contour>
      <point x="388" y="433" type="line"/>
      <point x="388" y="470" type="line"/>
      <point x="84" y="383" type="line"/>
      <point x="84" y="346" type="line"/>
    </contour>
    <component base="l" xOffset="113"/>
  </outline>
</glyph>
<glyph name="OE" format="1">
  <advance width="1157"/>
  <unicode hex="0152"/>
  <outline>
    <contour>
      <point x="145" y="705"/>
      <point x="8" y="546"/>
      <point x="8" y="348" type="curve"/>
      <point x="8" y="152"/>
      <point x="146" y="-5"/>
      <point x="356" y="-5" type="curve"/>
      <point x="458" y="-5"/>
      <point x="542" y="31"/>
      <point x="602" y="91" type="curve"/>
      <point x="602" y="608" type="line"/>
      <point x="542" y="668"/>
      <point x="458" y="705"/>
      <point x="356" y="705" type="curve"/>
    </contour>
    <contour>
      <point x="540" y="674"/>
      <point x="620" y="591"/>
      <point x="620" y="348" type="curve"/>
      <point x="620" y="115"/>
      <point x="540" y="26"/>
      <point x="356" y="26" type="curve"/>
      <point x="172" y="26"/>
      <point x="50" y="164"/>
      <point x="50" y="348" type="curve"/>
      <point x="50" y="533"/>
      <point x="173" y="674"/>
      <point x="356" y="674" type="curve"/>
    </contour>
    <component base="E" xOffset="524"/>
    <contour>
      <point x="356" y="738" type="move" name="top"/>
    </contour>
  </outline>
</glyph>
<glyph name="oe" format="1">
  <advance width="1011"/>
  <unicode hex="0153"/>
  <outline>
    <component base="o"/>
    <component base="e" xOffset="464"/>
    <contour>
      <point x="559" y="541" type="move" name="top"/>
    </contour>
  </outline>
</glyph>
<glyph name="florin" format="1">
  <advance width="583"/>
  <unicode hex="0192"/>
  <outline>
    <contour>
      <point x="510" y="708"/>
      <point x="468" y="733"/>
      <point x="395" y="733" type="curve"/>
      <point x="240" y="733"/>
      <point x="214" y="608"/>
      <point x="196" y="543" type="curve"/>
      <point x="9" y="-170" type="line"/>
      <point x="49" y="-170" type="line"/>
      <point x="241" y="563" type="line"/>
      <point x="256" y="620"/>
      <point x="292" y="713"/>
      <point x="395" y="713" type="curve"/>
      <point x="444" y="713"/>
      <point x="484" y="687"/>
      <point x="508" y="659" type="curve"/>
      <point x="538" y="680" type="line"/>
    </contour>
    <contour>
      <point x="35" y="395" type="line"/>
      <point x="35" y="362" type="line"/>
      <point x="368" y="362" type="line"/>
      <point x="368" y="395" type="line"/>
    </contour>
  </outline>
</glyph>
<glyph name="circumflex" format="1">
  <advance width="600"/>
  <unicode hex="02C6"/>
  <outline>
    <contour>
      <point x="266" y="722" type="line"/>
      <point x="402" y="595" type="line"/>
      <point x="444" y="609" type="line"/>
      <point x="290" y="746" type="line"/>
    </contour>
    <contour>
      <point x="134" y="609" type="line"/>
      <point x="176" y="595" type="line"/>
      <point x="312" y="722" type="line"/>
      <point x="288" y="746" type="line"/>
    </contour>
    <contour>
      <point x="288" y="480" type="move" name="_top"/>
    </contour>
  </outline>
</glyph>
<glyph name="caron" format="1">
  <advance width="600"/>
  <unicode hex="02C7"/>
  <outline>
    <contour>
      <point x="444" y="719" type="line"/>
      <point x="402" y="733" type="line"/>
      <point x="266" y="606" type="line"/>
      <point x="290" y="582" type="line"/>
    </contour>
    <contour>
      <point x="312" y="606" type="line"/>
      <point x="176" y="733" type="line"/>
      <point x="134" y="719" type="line"/>
      <point x="288" y="582" type="line"/>
    </contour>
    <contour>
      <point x="288" y="485" type="move" name="_top"/>
    </contour>
  </outline>
</glyph>
<glyph name="ogonek" format="1">
  <advance width="600"/>
  <unicode hex="02DB"/>
  <outline>
    <contour>
      <point x="285" y="6" type="line"/>
      <point x="248" y="-36"/>
      <point x="241" y="-61"/>
      <point x="241" y="-86" type="curve" smooth="yes"/>
      <point x="241" y="-156"/>
      <point x="307" y="-187"/>
      <point x="367" y="-187" type="curve" smooth="yes"/>
      <point x="389" y="-187"/>
      <point x="415" y="-182"/>
      <point x="429" y="-178" type="curve"/>
      <point x="429" y="-141" type="line"/>
      <point x="415" y="-147"/>
      <point x="392" y="-154"/>
      <point x="367" y="-154" type="curve" smooth="yes"/>
      <point x="309" y="-154"/>
      <point x="273" y="-125"/>
      <point x="273" y="-83" type="curve" smooth="yes"/>
      <point x="273" y="-59"/>
      <point x="285" y="-34"/>
      <point x="318" y="6" type="curve"/>
    </contour>
    <contour>
      <point x="301" y="0" type="move" name="_ogonek"/>
    </contour>
  </outline>
</glyph>
<glyph name="hungarumlaut" format="1">
  <advance width="788"/>
  <unicode hex="02DD"/>
  <outline>
    <component base="acute" xOffset="236"/>
    <component base="acute" xOffset="-9"/>
    <contour>
      <point x="393" y="482" type="move" name="_top"/>
    </contour>
  </outline>
</glyph>
<glyph name="pi" format="1">
  <advance width="600"/>
  <unicode hex="03C0"/>
  <outline>
    <contour>
      <point x="23" y="463" type="line"/>
      <point x="580" y="463" type="line"/>
      <point x="580" y="500" type="line"/>
      <point x="23" y="500" type="line"/>
    </contour>
    <contour>
      <point x="124" y="479" type="line"/>
      <point x="124" y="0" type="line"/>
      <point x="174" y="0" type="line"/>
      <point x="174" y="479" type="line"/>
    </contour>
    <contour>
      <point x="426" y="479" type="line"/>
      <point x="426" y="0" type="line"/>
      <point x="476" y="0" type="line"/>
      <point x="476" y="479" type="line"/>
    </contour>
  </outline>
</glyph>
<glyph name="endash" format="1">
  <advance width="600"/>
  <unicode hex="2013"/>
  <outline>
    <contour>
      <point x="504" y="327" type="line"/>
      <point x="95" y="327" type="line"/>
      <point x="95" y="293" type="line"/>
      <point x="504" y="293" type="line"/>
    </contour>
  </outline>
</glyph>
<glyph name="dagger" format="1">
  <advance width="600"/>
  <unicode hex="2020"/>
  <outline>
    <contour>
      <point x="278" y="754" type="line"/>
      <point x="291" y="534" type="line"/>
      <point x="70" y="547" type="line"/>
      <point x="70" y="501" type="line"/>
      <point x="291" y="514" type="line"/>
      <point x="276" y="-161" type="line"/>
      <point x="324" y="-161" type="line"/>
      <point x="309" y="514" type="line"/>
      <point x="530" y="501" type="line"/>
      <point x="530" y="547" type="line"/>
      <point x="309" y="534" type="line"/>
      <point x="322" y="754" type="line"/>
    </contour>
  </outline>
</glyph>
<glyph name="daggerdbl" format="1">
  <advance width="600"/>
  <unicode hex="2021"/>
  <outline>
    <contour>
      <point x="277" y="754" type="line"/>
      <point x="291" y="470" type="line"/>
      <point x="291" y="123" type="line"/>
      <point x="277" y="-161" type="line"/>
      <point x="323" y="-161" type="line"/>
      <point x="309" y="123" type="line"/>
      <point x="309" y="470" type="line"/>
      <point x="323" y="754" type="line"/>
    </contour>
    <contour>
      <point x="300" y="134" type="line"/>
      <point x="70" y="148" type="line"/>
      <point x="70" y="103" type="line"/>
      <point x="300" y="116" type="line"/>
      <point x="530" y="103" type="line"/>
      <point x="530" y="148" type="line"/>
    </contour>
    <contour>
      <point x="300" y="479" type="line"/>
      <point x="70" y="492" type="line"/>
      <point x="70" y="447" type="line"/>
      <point x="300" y="460" type="line"/>
      <point x="530" y="447" type="line"/>
      <point x="530" y="492" type="line"/>
    </contour>
  </outline>
</glyph>
<glyph name="guilsinglleft" format="1">
  <advance width="347"/>
  <unicode hex="2039"/>
  <outline>
    <contour>
      <point x="214" y="88" type="line"/>
      <point x="112" y="268" type="line"/>
      <point x="40" y="268" type="line"/>
      <point x="204" y="81" type="line"/>
    </contour>
    <contour>
      <point x="204" y="452" type="line"/>
      <point x="40" y="266" type="line"/>
      <point x="112" y="266" type="line"/>
      <point x="214" y="446" type="line"/>
    </contour>
  </outline>
</glyph>
<glyph name="Euro" format="1">
  <advance width="781"/>
  <unicode hex="20AC"/>
  <outline>
    <contour>
      <point x="43" y="438" type="line"/>
      <point x="43" y="405" type="line"/>
      <point x="542" y="405" type="line"/>
      <point x="542" y="438" type="line"/>
    </contour>
    <contour>
      <point x="43" y="292" type="line"/>
      <point x="43" y="259" type="line"/>
      <point x="542" y="259" type="line"/>
      <point x="542" y="292" type="line"/>
    </contour>
    <component base="C" xOffset="83"/>
  </outline>
</glyph>
<glyph name="product" format="1">
  <advance width="687"/>
  <unicode hex="220F"/>
  <outline>
    <contour>
      <point x="546" y="682" type="line"/>
      <point x="546" y="-117" type="line"/>
      <point x="586" y="-117" type="line"/>
      <point x="586" y="682" type="line"/>
    </contour>
    <contour>
      <point x="98" y="682" type="line"/>
      <point x="98" y="-117" type="line"/>
      <point x="138" y="-117" type="line"/>
      <point x="138" y="682" type="line"/>
    </contour>
    <contour>
      <point x="19" y="666" type="line"/>
      <point x="669" y="666" type="line"/>
      <point x="669" y="706" type="line"/>
      <point x="19" y="706" type="line"/>
    </contour>
  </outline>
</glyph>
<glyph name="minus" format="1">
  <advance width="820"/>
  <unicode hex="2212"/>
  <outline>
    <contour>
      <point x="47" y="282" type="line"/>
      <point x="773" y="282" type="line"/>
      <point x="773" y="316" type="line"/>
      <point x="47" y="316" type="line"/>
    </contour>
  </outline>
</glyph>
<glyph name="radical" format="1">
  <advance width="497"/>
  <unicode hex="221A"/>
  <outline>
    <contour>
      <point x="409.604" y="513" type="line"/>
      <point x="247.520" y="40.767" type="line"/>
      <point x="171.392" y="263" type="line"/>
      <point x="119.915" y="263" type="line"/>
      <point x="48.876" y="208.833" type="line"/>
      <point x="70.546" y="182.567" type="line"/>
      <point x="137.942" y="237.157" type="line"/>
      <point x="222.608" y="-10" type="line"/>
      <point x="272.396" y="-10" type="line"/>
      <point x="451.904" y="513" type="line"/>
    </contour>
  </outline>
</glyph>
<glyph name="infinity" format="1">
  <advance width="858"/>
  <unicode hex="221E"/>
  <outline>
    <contour>
      <point x="347" y="283"/>
      <point x="275" y="201"/>
      <point x="185" y="201" type="curve" smooth="yes"/>
      <point x="101" y="201"/>
      <point x="45" y="267"/>
      <point x="45" y="346" type="curve" smooth="yes"/>
      <point x="45" y="425"/>
      <point x="102" y="490"/>
      <point x="184" y="490" type="curve" smooth="yes"/>
      <point x="272" y="490"/>
      <point x="335" y="428"/>
      <point x="382" y="370" type="curve" smooth="yes"/>
      <point x="439" y="302"/>
      <point x="561" y="158"/>
      <point x="672" y="158" type="curve" smooth="yes"/>
      <point x="776" y="158"/>
      <point x="833" y="255"/>
      <point x="833" y="346" type="curve" smooth="yes"/>
      <point x="833" y="437"/>
      <point x="777" y="533"/>
      <point x="673" y="533" type="curve" smooth="yes"/>
      <point x="562" y="533"/>
      <point x="482" y="425"/>
      <point x="381" y="318" type="curve" smooth="yes"/>
    </contour>
    <contour>
      <point x="388" y="426"/>
      <point x="298" y="533"/>
      <point x="185" y="533" type="curve" smooth="yes"/>
      <point x="81" y="533"/>
      <point x="25" y="436"/>
      <point x="25" y="345" type="curve" smooth="yes"/>
      <point x="25" y="254"/>
      <point x="80" y="158"/>
      <point x="184" y="158" type="curve" smooth="yes"/>
      <point x="295" y="158"/>
      <point x="418" y="297"/>
      <point x="488" y="372" type="curve" smooth="yes"/>
      <point x="543" y="432"/>
      <point x="595" y="490"/>
      <point x="672" y="490" type="curve" smooth="yes"/>
      <point x="772" y="490"/>
      <point x="813" y="408"/>
      <point x="813" y="345" type="curve" smooth="yes"/>
      <point x="813" y="282"/>
      <point x="774" y="201"/>
      <point x="673" y="201" type="curve" smooth="yes"/>
      <point x="594" y="201"/>
      <point x="530" y="276"/>
      <point x="489" y="319" type="curve" smooth="yes"/>
    </contour>
  </outline>
</glyph>
<glyph name="notequal" format="1">
  <advance width="600"/>
  <unicode hex="2260"/>
  <outline>
    <contour>
      <point x="398" y="654" type="line"/>
      <point x="168" y="-122" type="line"/>
      <point x="203" y="-122" type="line"/>
      <point x="433" y="654" type="line"/>
    </contour>
    <component base="equal"/>
  </outline>
</glyph>
<glyph name="lessequal" format="1">
  <advance width="600"/>
  <unicode hex="2264"/>
  <outline>
    <contour>
      <point x="544" y="33" type="line"/>
      <point x="32" y="33" type="line"/>
      <point x="32" y="0" type="line"/>
      <point x="544" y="0" type="line"/>
    </contour>
    <component base="less" yOffset="125"/>
  </outline>
</glyph>
<glyph name="lozenge" format="1">
  <advance width="754"/>
  <unicode hex="25CA"/>
  <outline>
    <contour>
      <point x="625" y="289" type="line"/>
      <point x="572" y="289" type="line"/>
      <point x="375" y="118" type="line"/>
      <point x="375" y="69" type="line"/>
    </contour>
    <contour>
      <point x="377" y="118" type="line"/>
      <point x="180" y="289" type="line"/>
      <point x="127" y="289" type="line"/>
      <point x="377" y="69" type="line"/>
    </contour>
    <contour>
      <point x="377" y="506" type="line"/>
      <point x="127" y="287" type="line"/>
      <point x="180" y="287" type="line"/>
      <point x="377" y="459" type="line"/>
    </contour>
    <contour>
      <point x="572" y="287" type="line"/>
      <point x="625" y="287" type="line"/>
      <point x="375" y="506" type="line"/>
      <point x="375" y="459" type="line"/>
    </contour>
  </outline>
</glyph>
<glyph name="fi" format="1">
  <advance width="602"/>
  <unicode hex="FB01"/>
  <outline>
    <contour>
      <point x="109" y="746"/>
      <point x="62" y="667"/>
      <point x="62" y="615" type="curve" smooth="yes"/>
      <point x="62" y="568"/>
      <point x="89" y="521"/>
      <point x="140" y="501" type="curve"/>
      <point x="9" y="501" type="line"/>
      <point x="9" y="466" type="line"/>
      <point x="115" y="466" type="line"/>
      <point x="114" y="1" type="line"/>
      <point x="158" y="1" type="line"/>
      <point x="158" y="466" type="line"/>
      <point x="473.422" y="466" type="line"/>
      <point x="473.422" y="501" type="line"/>
      <point x="190" y="501" type="line"/>
      <point x="109" y="529"/>
      <point x="98" y="573"/>
      <point x="98" y="611" type="curve" smooth="yes"/>
      <point x="98" y="687"/>
      <point x="162" y="728"/>
      <point x="261" y="728" type="curve" smooth="yes"/>
      <point x="348" y="728"/>
      <point x="403" y="699"/>
      <point x="426" y="675" type="curve"/>
      <point x="485" y="674" type="line"/>
      <point x="485" y="704" type="line"/>
      <point x="436" y="704" type="line"/>
      <point x="401" y="727"/>
      <point x="347" y="746"/>
      <point x="261" y="746" type="curve" smooth="yes"/>
    </contour>
    <contour>
      <point x="441" y="500" type="line"/>
      <point x="441" y="0" type="line"/>
      <point x="485" y="0" type="line"/>
      <point x="485" y="500" type="line"/>
    </contour>
  </outline>
</glyph>
